<svg width="12" height="12" viewBox="0 0 12 12" fill="none" xmlns="http://www.w3.org/2000/svg">
<path d="M9.53906 12H2.46094C1.10398 12 0 10.896 0 9.53906V2.46094C0 1.10398 1.10398 0 2.46094 0H9.53906C10.896 0 12 1.10398 12 2.46094V9.53906C12 10.896 10.896 12 9.53906 12Z" fill="#F2F2F2"/>
<path d="M9.53906 0H6V12H9.53906C10.896 12 12 10.896 12 9.53906V2.46094C12 1.10398 10.896 0 9.53906 0Z" fill="#E5E5E5"/>
<path d="M7.52344 6.67139C6.11449 5.77303 4.94531 4.86703 4.94531 3.42188C4.94531 2.64523 5.57491 2.01562 6.35156 2.01562C6.84082 2.01562 7.27153 2.26561 7.52344 2.64466C7.77534 2.26561 8.20605 2.01562 8.69531 2.01562C9.47196 2.01562 10.1016 2.64523 10.1016 3.42188C10.1016 4.86703 8.93238 5.77303 7.52344 6.67139Z" fill="#EA596E"/>
<path d="M8.69531 2.01562C8.20605 2.01562 7.77534 2.26561 7.52344 2.64466C7.27153 2.26561 6.84082 2.01562 6.35156 2.01562C6.23016 2.01562 6.11236 2.031 6 2.05995V5.54883C6.4287 5.94731 6.95662 6.30998 7.52344 6.67139C8.93238 5.77303 10.1016 4.86703 10.1016 3.42188C10.1016 2.64523 9.47196 2.01562 8.69531 2.01562Z" fill="#DD2E44"/>
</svg>
