<svg width="44" height="44" viewBox="0 0 44 44" fill="none" xmlns="http://www.w3.org/2000/svg">
<path d="M20.167 36.6668H31.504C34.8538 36.6668 36.5288 36.6668 37.5281 35.5199C38.5275 34.3728 38.4343 32.5572 38.2482 28.9261L37.8202 20.5713C37.4529 18.2207 40.3337 16.359 40.3337 13.8575C40.3337 10.2544 34.9972 7.3335 28.9351 7.3335H14.667" fill="#FFCC00"/>
<path d="M20.167 36.6668H31.504C34.8538 36.6668 36.5288 36.6668 37.5281 35.5199C38.5275 34.3728 38.4343 32.5572 38.2482 28.9261L37.8202 20.5713C37.4529 18.2207 40.3337 16.359 40.3337 13.8575C40.3337 10.2544 34.9972 7.3335 28.9351 7.3335H14.667" stroke="#121212" stroke-width="2.75"/>
<path d="M15.5837 7.3335C9.24603 7.3335 3.66699 10.2544 3.66699 13.8575C3.66699 16.359 6.67861 18.2207 6.29486 20.5713L5.84717 28.9261C5.65262 32.5572 5.55534 34.3728 6.60011 35.5199C7.64487 36.6668 9.3959 36.6668 12.898 36.6668H18.2693C21.7713 36.6668 23.5225 36.6668 24.5672 35.5199C25.612 34.3728 25.5146 32.5572 25.3201 28.9261L24.8724 20.5713C24.4887 18.2207 27.5003 16.359 27.5003 13.8575C27.5003 10.2544 21.9213 7.3335 15.5837 7.3335Z" fill="#FFCC00" stroke="#121212" stroke-width="2.75"/>
</svg>
