<svg width="20" height="16" viewBox="0 0 20 16" fill="none" xmlns="http://www.w3.org/2000/svg">
<path d="M13.2255 9.326C13.2255 11.0735 11.7786 12.4951 10 12.4951C8.22137 12.4951 6.77503 11.0735 6.77503 9.326C6.77503 7.57846 8.22137 6.15686 10 6.15686C11.7786 6.15686 13.2255 7.579 13.2255 9.326ZM20 4.82597V13.8271C20 15.0271 19.0098 16 17.7885 16H2.21153C0.990214 16 0 15.0271 0 13.8271V4.82597C0 3.62599 0.990214 2.65309 2.21153 2.65309H4.93172V1.90127C4.93172 0.851226 5.79753 0 6.86681 0H13.1332C14.2025 0 15.0683 0.851226 15.0683 1.90127V2.65254H17.7885C19.0098 2.65309 20 3.62599 20 4.82597ZM14.8842 9.326C14.8842 6.67998 12.6931 4.5272 10 4.5272C7.30746 4.5272 5.11638 6.67998 5.11638 9.326C5.11638 11.972 7.30746 14.1248 10 14.1248C12.6931 14.1248 14.8842 11.972 14.8842 9.326Z" fill="#FF3A2F"/>
</svg>
