<svg width="45" height="39" viewBox="0 0 45 39" fill="none" xmlns="http://www.w3.org/2000/svg">
<path d="M41.8828 0H3.11703C1.39839 0 0 1.39839 0 3.11703V29.4173C0 31.136 1.39839 32.5344 3.11703 32.5344H25.7219L25.0394 36.6969C24.911 37.4805 25.1701 38.1903 25.7328 38.5953C26.2953 39.0003 27.0502 39.0221 27.7528 38.6518L32.6298 36.0848C32.7659 36.0149 33.1408 36.0149 33.2769 36.0848L38.1539 38.6518C38.4875 38.8274 38.8331 38.9148 39.1642 38.9148C39.5304 38.9148 39.8788 38.8078 40.1741 38.5951C40.7366 38.1901 40.9958 37.4801 40.8675 36.6966L40.1852 32.5342H41.883C43.6016 32.5342 45 31.1358 45 29.4171V3.11703C44.9998 1.39821 43.6014 0 41.8828 0ZM32.9535 27.1916C29.9581 27.1916 27.5209 24.7544 27.5209 21.759C27.5209 18.7637 29.9581 16.3265 32.9535 16.3265C35.9488 16.3265 38.386 18.7637 38.386 21.759C38.386 24.7544 35.9488 27.1916 32.9535 27.1916ZM34.5214 33.7206C33.6129 33.2422 32.2939 33.2422 31.3855 33.7206L27.9375 35.5354L29.0337 28.8491C30.1962 29.4944 31.5325 29.8632 32.9536 29.8632C34.3748 29.8632 35.7109 29.4943 36.8736 28.8491L37.3007 31.4559C37.3018 31.4601 37.3022 31.4648 37.3031 31.469L37.9698 35.5356L34.5214 33.7206ZM42.3281 29.4173C42.3281 29.6587 42.1241 29.8626 41.8828 29.8626H39.747L39.2591 26.8865C39.2572 26.8747 39.254 26.8635 39.2517 26.8517C40.38 25.4592 41.0579 23.687 41.0579 21.759C41.0579 17.2903 37.4224 13.6547 32.9536 13.6547C28.4849 13.6547 24.8494 17.2903 24.8494 21.759C24.8494 23.687 25.5273 25.4589 26.6556 26.8517C26.6533 26.8633 26.6501 26.8747 26.6481 26.8863L26.1599 29.8649C26.145 29.8644 26.1305 29.8626 26.1156 29.8626H3.11703C2.87569 29.8626 2.67174 29.6587 2.67174 29.4173V3.11703C2.67174 2.87569 2.87569 2.67174 3.11703 2.67174H41.8828C42.1241 2.67174 42.3281 2.87569 42.3281 3.11703V29.4173Z" fill="#EA5824"/>
<path d="M37.1584 7.68785H6.87867C6.14074 7.68785 5.5428 8.28579 5.5428 9.02373C5.5428 9.76166 6.14074 10.3596 6.87867 10.3596H37.1584C37.8964 10.3596 38.4943 9.76166 38.4943 9.02373C38.4943 8.28579 37.8964 7.68785 37.1584 7.68785Z" fill="#EA5824"/>
<path d="M19.703 14.9315H6.87867C6.14074 14.9315 5.5428 15.5294 5.5428 16.2674C5.5428 17.0053 6.14074 17.6032 6.87867 17.6032H19.703C20.441 17.6032 21.0389 17.0053 21.0389 16.2674C21.0389 15.5294 20.441 14.9315 19.703 14.9315Z" fill="#EA5824"/>
</svg>
