<svg width="14" height="14" viewBox="0 0 14 14" fill="none" xmlns="http://www.w3.org/2000/svg">
<path d="M14 7C14 10.8599 10.8599 14 7 14C6.88236 14 6.76504 13.9974 6.64867 13.9911C6.37905 13.9765 6.17238 13.7469 6.18669 13.4773C6.20131 13.2089 6.43183 13.0023 6.70018 13.0156C6.79937 13.0207 6.89953 13.0233 7 13.0233C10.3213 13.0233 13.0233 10.3213 13.0233 7C13.0233 3.67869 10.3213 0.976744 7 0.976744C3.67869 0.976744 0.97675 3.67868 0.97675 7C0.97675 7.1011 0.978977 7.20094 0.984063 7.30141C0.997418 7.5704 0.790114 7.79996 0.520806 7.81331C0.512536 7.81395 0.504273 7.81395 0.496003 7.81395C0.237511 7.81395 0.0216186 7.6111 0.00858233 7.34974C0.00285861 7.23401 0 7.11764 0 7C6.51163e-06 3.14008 3.14009 0 7 0C10.8599 0 14 3.14008 14 7ZM1.37292 9.1538C1.2982 8.95858 1.23302 8.75763 1.17865 8.5535C1.10933 8.29214 0.84321 8.13445 0.581221 8.20693C0.320821 8.27625 0.165662 8.54332 0.234972 8.80404C0.298245 9.04251 0.373598 9.27524 0.461036 9.50353C0.535438 9.69748 0.720485 9.81704 0.91698 9.81704C0.975168 9.81704 1.03431 9.80686 1.09154 9.78461C1.34335 9.68859 1.46958 9.40561 1.37292 9.1538ZM3.7232 12.0548C3.54579 11.9397 3.37505 11.815 3.21067 11.6828C3.0005 11.5124 2.69368 11.5461 2.52389 11.7553C2.35443 11.9651 2.38717 12.2729 2.59702 12.442C2.78683 12.5959 2.98492 12.7396 3.19031 12.8738C3.27266 12.9272 3.36487 12.9527 3.45644 12.9527C3.61605 12.9527 3.77248 12.8745 3.86596 12.7307C4.01317 12.505 3.94927 12.2023 3.7232 12.0548ZM2.31786 10.7893C2.18528 10.6259 2.06128 10.4555 1.94618 10.2787C1.79897 10.0517 1.4966 9.98746 1.27054 10.135C1.04447 10.2819 0.980247 10.5846 1.12714 10.8103C1.26068 11.0164 1.40503 11.2148 1.55923 11.4049C1.65589 11.5238 1.79675 11.5855 1.93887 11.5855C2.04697 11.5855 2.15571 11.5499 2.24633 11.4761C2.45554 11.3063 2.48766 10.9992 2.31786 10.7893ZM5.45 12.8223C5.24428 12.7676 5.04334 12.7021 4.84716 12.6271C4.59503 12.5317 4.31269 12.657 4.21699 12.9094C4.12097 13.1619 4.24719 13.4436 4.49932 13.5402C4.72666 13.6267 4.96004 13.7024 5.19818 13.766C5.24046 13.7774 5.28275 13.7825 5.32441 13.7825C5.54029 13.7825 5.73774 13.6382 5.79593 13.4201C5.86555 13.1593 5.7104 12.8916 5.45 12.8223ZM7 2.60465C6.73038 2.60465 6.51163 2.8234 6.51163 3.09302V7C6.51163 7.18504 6.61623 7.3542 6.78157 7.43686L9.38622 8.73919C9.45649 8.77416 9.53089 8.79069 9.60433 8.79069C9.78334 8.79069 9.95599 8.69213 10.0415 8.52044C10.162 8.27943 10.0644 7.98628 9.82308 7.86546L7.48838 6.69794V3.09302C7.48838 2.8234 7.26962 2.60465 7 2.60465Z" fill="#FFCC00"/>
</svg>
