<svg width="25" height="18" viewBox="0 0 25 18" fill="none" xmlns="http://www.w3.org/2000/svg">
<path d="M22.7528 1.45588C24.1573 2.91176 25 4.5 25 7.14706C25 11.7794 21.4888 15.8824 16.573 18L15.309 16.2794C19.9438 13.8971 20.927 10.8529 21.2079 8.86765C20.5056 9.26471 19.5225 9.39706 18.5393 9.2647C16.0112 9 14.0449 7.14706 14.0449 4.63235C14.0449 3.44118 14.6067 2.25 15.4494 1.32353C16.4326 0.39706 17.5562 0 18.9607 0C20.5056 0 21.9101 0.661763 22.7528 1.45588ZM8.70787 1.45588C10.1124 2.91176 10.9551 4.5 10.9551 7.14706C10.9551 11.7794 7.44382 15.8824 2.52809 18L1.26405 16.2794C5.89888 13.8971 6.88202 10.8529 7.16292 8.86765C6.46067 9.26471 5.47753 9.39706 4.49438 9.2647C1.96629 9 -4.17232e-07 7.14706 -4.17232e-07 4.63235C-4.17232e-07 3.44118 0.561798 2.25 1.40449 1.32353C2.24719 0.39706 3.51124 0 4.91573 0C6.46068 0 7.86517 0.661763 8.70787 1.45588Z" fill="#EB5725"/>
</svg>
