<svg width="14" height="14" viewBox="0 0 14 14" fill="none" xmlns="http://www.w3.org/2000/svg">
<path d="M7 14C3.14015 14 0 10.8598 0 7C0 3.14015 3.14015 0 7 0C10.8598 0 14 3.14015 14 7C14 10.8598 10.8598 14 7 14ZM7 0.999969C3.69162 0.999969 0.999969 3.69162 0.999969 7C0.999969 10.3084 3.69162 13 7 13C10.3084 13 13 10.3084 13 7C13 3.69162 10.3084 0.999969 7 0.999969Z" fill="#FF3A2F"/>
<path d="M9.50003 10C9.37207 10 9.24411 9.9512 9.14648 9.85347L4.14653 4.85352C3.95117 4.65816 3.95117 4.34178 4.14653 4.14653C4.34178 3.95128 4.65826 3.95117 4.85352 4.14653L9.85347 9.14648C10.0488 9.34184 10.0488 9.65822 9.85347 9.85347C9.75584 9.9512 9.62799 10 9.50003 10Z" fill="#FF3A2F"/>
<path d="M4.49997 10C4.37201 10 4.24416 9.9512 4.14653 9.85347C3.95117 9.65822 3.95117 9.34174 4.14653 9.14648L9.14648 4.14653C9.34184 3.95117 9.65822 3.95117 9.85347 4.14653C10.0487 4.34178 10.0488 4.65826 9.85347 4.85352L4.85352 9.85347C4.75589 9.9512 4.62793 10 4.49997 10Z" fill="#FF3A2F"/>
</svg>
