<svg width="16" height="16" viewBox="0 0 16 16" fill="none" xmlns="http://www.w3.org/2000/svg">
<path d="M10.6668 5.33325C10.5043 5.82083 10.1699 6.1951 9.69656 6.40494C8.1763 7.07892 7.07916 8.17605 6.40518 9.69632C6.19534 10.1697 5.82108 10.5041 5.3335 10.6666" stroke="white" stroke-width="1.5" stroke-linejoin="round"/>
<path d="M2.1335 13.8666L1.3335 14.6666M13.8668 2.13325L14.6668 1.33325" stroke="white" stroke-width="1.5" stroke-linecap="round" stroke-linejoin="round"/>
<path d="M11.8587 1.61467L10.8506 2.58343L13.411 5.16775L14.3961 4.21126C14.6917 3.863 14.7823 3.60065 14.4142 3.11747L13.677 2.34219L12.9297 1.60499C12.4519 1.17649 12.0757 1.40705 11.8587 1.61467Z" stroke="white" stroke-width="1.5" stroke-linecap="round" stroke-linejoin="round"/>
<path d="M9.34085 2.50512C10.0813 1.72258 10.5883 2.27952 10.8487 2.58965L13.3872 5.13829C13.7031 5.39159 14.2811 5.87756 13.5172 6.63428C13.3939 6.75638 13.2731 6.88425 13.1391 6.99445C12.6445 7.40132 12.1699 7.06405 11.9183 6.75411L9.33452 4.17034C9.06245 3.92596 8.59239 3.48319 8.98939 2.89134C9.09639 2.75475 9.22159 2.63116 9.34085 2.50512Z" stroke="white" stroke-width="1.5" stroke-linecap="round" stroke-linejoin="round"/>
<path d="M3.05845 14.4135L2.29756 13.6615L1.57492 12.9001C1.1461 12.4713 1.3935 12.0424 1.60526 11.8295L2.59331 10.8403L5.16437 13.4225L4.15239 14.4165C3.79848 14.7054 3.55582 14.7939 3.07983 14.4165M4.14905 9.28301C3.88864 8.97288 3.38156 8.41594 2.64116 9.19847C2.52191 9.32447 2.3967 9.44807 2.28971 9.58467C1.89272 10.1765 2.36274 10.6193 2.63479 10.8637L5.21864 13.4475C5.47014 13.7574 5.94482 14.0947 6.4394 13.6878C6.57339 13.5776 6.69423 13.4497 6.8175 13.3276C7.58143 12.5709 7.00343 12.0849 6.6875 11.8317L4.14905 9.28301Z" stroke="white" stroke-width="1.5" stroke-linecap="round" stroke-linejoin="round"/>
</svg>
