<svg width="14" height="17" viewBox="0 0 14 17" fill="none" xmlns="http://www.w3.org/2000/svg">
<path d="M10.3705 15.324C10.3705 15.5239 10.2911 15.7156 10.1498 15.8569C10.0084 15.9983 9.81675 16.0777 9.61687 16.0777H2.51214C1.84611 16.0769 1.20757 15.812 0.736614 15.3411C0.265659 14.8701 0.000748023 14.2316 0 13.5655V2.51214C0.000748023 1.84611 0.265659 1.20757 0.736614 0.736614C1.20757 0.265659 1.84611 0.000748023 2.51214 0H9.61687C9.81675 0 10.0084 0.0794013 10.1498 0.220736C10.2911 0.362072 10.3705 0.553763 10.3705 0.753641C10.3705 0.953519 10.2911 1.14521 10.1498 1.28655C10.0084 1.42788 9.81675 1.50728 9.61687 1.50728H2.51214C2.24572 1.50757 1.9903 1.61354 1.80192 1.80192C1.61354 1.9903 1.50757 2.24572 1.50728 2.51214V13.5655C1.50757 13.832 1.61352 14.0874 1.80191 14.2758C1.9903 14.4642 2.24572 14.5701 2.51214 14.5704H9.61687C9.81675 14.5704 10.0084 14.6498 10.1498 14.7911C10.2911 14.9325 10.3705 15.1242 10.3705 15.324ZM13.7793 7.50595L10.1979 3.92452C10.1282 3.85326 10.045 3.79653 9.95326 3.75762C9.86149 3.71871 9.76291 3.69839 9.66324 3.69783C9.56356 3.69728 9.46476 3.71651 9.37256 3.7544C9.28037 3.7923 9.19661 3.8481 9.12613 3.91859C9.05565 3.98908 8.99985 4.07285 8.96197 4.16505C8.92408 4.25725 8.90487 4.35605 8.90543 4.45573C8.906 4.5554 8.92633 4.65398 8.96525 4.74575C9.00417 4.83751 9.06091 4.92064 9.13219 4.99033L11.4269 7.2852H5.49401C5.29414 7.2852 5.10244 7.3646 4.96111 7.50594C4.81977 7.64727 4.74037 7.83896 4.74037 8.03884C4.74037 8.23872 4.81977 8.43041 4.96111 8.57175C5.10244 8.71308 5.29414 8.79248 5.49401 8.79248H11.4269L9.13206 11.0873C9.06177 11.1572 9.00596 11.2403 8.96783 11.3318C8.9297 11.4234 8.91001 11.5215 8.90987 11.6206C8.90974 11.7198 8.92917 11.818 8.96704 11.9096C9.00492 12.0012 9.06051 12.0845 9.13061 12.1546C9.20071 12.2247 9.28396 12.2803 9.37558 12.3181C9.4672 12.356 9.5654 12.3754 9.66454 12.3753C9.76368 12.3752 9.86182 12.3555 9.95334 12.3174C10.0449 12.2792 10.128 12.2234 10.1979 12.1531L13.7793 8.57176C13.9206 8.43042 14 8.23873 14 8.03886C14 7.83898 13.9206 7.64729 13.7793 7.50595Z" fill="#FF3A2F"/>
</svg>
