<svg width="16" height="16" viewBox="0 0 16 16" fill="none" xmlns="http://www.w3.org/2000/svg">
<path d="M6.6665 4.68445C6.9885 2.78207 8.64417 1.33325 10.6382 1.33325C12.863 1.33325 14.6665 3.1368 14.6665 5.36159C14.6665 7.35559 13.2177 9.01125 11.3153 9.33325" stroke="white" stroke-linecap="round" stroke-linejoin="round"/>
<path d="M5.3335 14.6667C7.54263 14.6667 9.3335 12.8759 9.3335 10.6667C9.3335 8.45761 7.54263 6.66675 5.3335 6.66675C3.12436 6.66675 1.3335 8.45761 1.3335 10.6667C1.3335 12.8759 3.12436 14.6667 5.3335 14.6667Z" stroke="white" stroke-linecap="round" stroke-linejoin="round"/>
<path d="M1.3335 6C1.3335 3.78857 3.12207 2 5.3335 2L4.76207 3.14286" stroke="white" stroke-linecap="round" stroke-linejoin="round"/>
<path d="M14.6665 10C14.6665 12.2114 12.8779 14 10.6665 14L11.2379 12.8571" stroke="white" stroke-linecap="round" stroke-linejoin="round"/>
</svg>
