<svg width="44" height="44" viewBox="0 0 44 44" fill="none" xmlns="http://www.w3.org/2000/svg">
<path d="M22 40.3332C29.5939 40.3332 35.75 34.177 35.75 26.5832C35.75 24.7498 35.75 21.0832 32.0833 16.4998C32.0833 16.4998 31.9007 21.7314 28.2814 20.9746C22.4274 19.7507 29.9844 8.25526 19.25 3.6665C19.25 12.8332 8.25 15.5832 8.25 26.5832C8.25 34.177 14.4061 40.3332 22 40.3332Z" fill="url(#paint0_linear_0_7112)" stroke="#E85424" stroke-width="4.125" stroke-linejoin="round"/>
<path d="M21.9997 34.8352C25.5435 34.8352 28.4163 31.1416 28.4163 26.5852C22.5497 28.7852 20.472 23.7193 20.1663 20.1665C17.5158 21.1807 15.583 25.3468 15.583 27.4998C15.583 32.0562 18.4558 34.8352 21.9997 34.8352Z" fill="#121212"/>
<defs>
<linearGradient id="paint0_linear_0_7112" x1="22" y1="3.6665" x2="22" y2="40.3332" gradientUnits="userSpaceOnUse">
<stop stop-color="#E95426"/>
<stop offset="1" stop-color="#EB5923"/>
</linearGradient>
</defs>
</svg>
