<svg width="14" height="14" viewBox="0 0 14 14" fill="none" xmlns="http://www.w3.org/2000/svg">
<path d="M8.00773 2.00894L9.03428 4.07902C9.17428 4.36718 9.54755 4.64358 9.86255 4.6965L11.7232 5.00819C12.913 5.20814 13.193 6.07852 12.3356 6.93713L10.8891 8.39558C10.6441 8.64256 10.51 9.11891 10.5858 9.46004L10.9999 11.2655C11.3265 12.6945 10.5741 13.2473 9.32011 12.5004L7.57612 11.4595C7.26118 11.2714 6.74207 11.2714 6.42123 11.4595L4.67728 12.5004C3.42908 13.2473 2.67084 12.6886 2.99747 11.2655L3.41159 9.46004C3.48741 9.11891 3.35326 8.64256 3.10829 8.39558L1.66178 6.93713C0.810209 6.07852 1.08435 5.20814 2.27421 5.00819L4.13484 4.6965C4.44397 4.64358 4.81727 4.36718 4.95725 4.07902L5.98379 2.00894C6.54373 0.885692 7.45362 0.885692 8.00773 2.00894Z" fill="#FF8D28"/>
</svg>
