<svg width="15" height="12" viewBox="0 0 15 12" fill="none" xmlns="http://www.w3.org/2000/svg">
<path d="M1.36023 6.35086L2.06811 7.05874L3.60879 5.53195L2.58167 4.50483C2.31795 4.24111 2.19303 3.90799 2.19303 3.54711C2.19303 3.22787 2.30407 2.9364 2.48451 2.71432C2.73435 2.39508 3.12299 2.18688 3.55327 2.18688C3.91414 2.18688 4.26114 2.32568 4.52486 2.5894L4.8441 2.89476L5.55198 3.61651L7.07877 2.07584L6.35702 1.36796L6.03778 1.0626C5.3993 0.424126 4.51098 0.0216078 3.53939 0.0216078C1.58231 0.00772786 0 1.59004 0 3.54711C0 4.03291 0.0971596 4.49095 0.277599 4.92123C0.458038 5.35151 0.721757 5.72627 1.041 6.0455L1.36023 6.35086Z" fill="#E53935"/>
<path d="M4.88574 7.33634L7.07877 5.14331L5.5381 3.60263L3.60879 5.53195L2.06811 7.05874L3.60879 8.59941L4.34442 7.86378" fill="#FBBC04"/>
<path d="M8.61944 10.5287L12.0894 7.05874L10.5488 5.53195L7.07877 8.98805L5.14946 7.07262L3.60879 8.59941L5.5381 10.5287V10.5426L7.07877 12L8.61944 10.5287Z" fill="#34A853"/>
<path d="M13.1165 6.03162C13.8383 5.30987 14.2547 4.21335 14.1298 3.08908C13.9632 1.39572 12.5613 0.132647 10.8541 0.00772767C9.78536 -0.0616721 8.79988 0.340847 8.10589 1.03484L5.5381 3.60263L7.07877 5.14331L9.66044 2.57552C9.9658 2.27016 10.41 2.13136 10.8402 2.20076C11.4093 2.28404 11.8812 2.76984 11.9645 3.33891C12.02 3.76919 11.8812 4.18559 11.5759 4.49095L10.5488 5.51807L12.0894 7.05874L13.1165 6.03162Z" fill="#4285F4"/>
</svg>
