<svg width="16" height="16" viewBox="0 0 16 16" fill="none" xmlns="http://www.w3.org/2000/svg">
<path d="M13.9989 2.99686H10.0054M13.9989 2.99686C13.9989 2.53055 12.6715 1.65936 12.3349 1.33203M13.9989 2.99686C13.9989 3.46316 12.6715 4.33436 12.3349 4.66168" stroke="white" stroke-width="1.5" stroke-linecap="round" stroke-linejoin="round"/>
<path d="M4.35845 9.63025V6.65041M4.35845 6.65041V2.96858C4.35845 2.42143 4.81471 1.98047 5.36223 1.98047C5.90974 1.98047 6.34117 2.42143 6.34117 2.96858V5.63623M4.35845 6.65041C3.48057 7.44538 2.53589 8.44972 2.40867 8.70698C1.81675 9.60738 1.87879 10.0433 2.53845 11.1451C3.09874 12.0809 3.85224 13.1194 3.89622 13.1692C4.34391 13.6762 4.25489 13.6764 4.90377 14.1524C5.48321 14.5543 6.68507 14.8344 9.50273 14.5543C11.7981 14.2 12.3481 12.1976 12.3361 11.2408V8.87772C12.4791 6.91365 11.6576 6.82498 10.166 6.63168M6.34117 5.63623V7.32091M6.34117 5.63623C6.7134 5.0296 8.06533 5.27476 8.3288 6.42029M8.3288 6.42029C8.32993 6.42511 8.331 6.42994 8.33207 6.43479C8.33633 6.45401 8.3398 6.47338 8.3426 6.49286M8.3288 6.42029C8.33153 6.44363 8.33613 6.46782 8.3426 6.49286M8.3288 6.42029C8.23527 5.62185 10.2598 5.81649 10.3422 7.22065V7.98385M8.35267 7.31825V6.65041C8.35267 6.59776 8.35 6.54494 8.3426 6.49286" stroke="white" stroke-width="1.5" stroke-linecap="round"/>
</svg>
