<svg width="14" height="14" viewBox="0 0 14 14" fill="none" xmlns="http://www.w3.org/2000/svg">
<path d="M7 0C3.13111 0 0 3.13075 0 7C0 10.8688 3.13075 14 7 14C10.8689 14 14 10.8692 14 7C14 3.13116 10.8692 0 7 0ZM7 13.0233C3.67877 13.0233 0.976746 10.3213 0.976746 7C0.976746 3.67875 3.67877 0.976746 7 0.976746C10.3212 0.976746 13.0233 3.67875 13.0233 7C13.0233 10.3213 10.3212 13.0233 7 13.0233Z" fill="#EB5725"/>
<path d="M7.00016 5.83331C6.58552 5.83331 6.29067 6.00841 6.29067 6.2664V9.77696C6.29067 9.99811 6.58552 10.2192 7.00016 10.2192C7.39637 10.2192 7.71883 9.99811 7.71883 9.77696V6.26635C7.71883 6.00839 7.39637 5.83331 7.00016 5.83331Z" fill="#EB5725"/>
<path d="M7.00016 3.66972C6.57631 3.66972 6.24463 3.97379 6.24463 4.32392C6.24463 4.67409 6.57634 4.98736 7.00016 4.98736C7.4148 4.98736 7.74654 4.67409 7.74654 4.32392C7.74654 3.97379 7.41478 3.66972 7.00016 3.66972Z" fill="#EB5725"/>
</svg>
