<svg width="14" height="14" viewBox="0 0 14 14" fill="none" xmlns="http://www.w3.org/2000/svg">
<path d="M0.820312 7C0.820312 3.5925 3.5925 0.820312 7 0.820312C8.28152 0.820312 9.50368 1.20889 10.5327 1.93011H9.73771C9.5112 1.93011 9.32755 2.11375 9.32755 2.34027C9.32755 2.56679 9.5112 2.75043 9.73771 2.75043H11.6598C11.8863 2.75043 12.0699 2.56679 12.0699 2.34027V0.418223C12.0699 0.191707 11.8863 0.00806641 11.6598 0.00806641C11.4332 0.00806641 11.2496 0.191707 11.2496 0.418223V1.43921C10.0348 0.505832 8.55613 0 7 0C5.13023 0 3.37239 0.728137 2.05023 2.05023C0.728137 3.37239 0 5.13023 0 7C0 8.22831 0.324598 9.43857 0.938711 10.4999C1.01473 10.6314 1.15248 10.7048 1.2941 10.7048C1.36382 10.7048 1.43448 10.6869 1.49915 10.6495C1.6952 10.5361 1.76217 10.2852 1.64875 10.0891C1.10679 9.15244 0.820312 8.08423 0.820312 7Z" fill="#EB5725"/>
<path d="M13.0613 3.50005C12.9478 3.30397 12.6969 3.23704 12.5009 3.35048C12.3048 3.46393 12.2378 3.71484 12.3513 3.91092C12.8932 4.84753 13.1797 5.91571 13.1797 7C13.1797 10.4075 10.4075 13.1797 7 13.1797C5.71859 13.1797 4.49665 12.791 3.46773 12.0699H4.26229C4.4888 12.0699 4.67245 11.8862 4.67245 11.6597C4.67245 11.4332 4.4888 11.2496 4.26229 11.2496H2.34027C2.11375 11.2496 1.93011 11.4332 1.93011 11.6597V13.5818C1.93011 13.8083 2.11375 13.9919 2.34027 13.9919C2.56679 13.9919 2.75043 13.8083 2.75043 13.5818V12.5598C3.9652 13.4935 5.44368 14 7 14C8.86977 14 10.6276 13.2719 11.9498 11.9498C13.2719 10.6276 14 8.86977 14 7C14 5.77164 13.6754 4.56138 13.0613 3.50005Z" fill="#EB5725"/>
<path d="M10.648 6.17594C10.6761 6.07086 10.6614 5.95891 10.607 5.86472L9.78671 4.44388C9.73232 4.34968 9.64272 4.28094 9.53766 4.25277C9.43258 4.22464 9.32064 4.23935 9.22644 4.29376L8.75952 4.56334C8.59346 4.44287 8.41668 4.34044 8.23047 4.25685V3.71875C8.23047 3.49223 8.04683 3.30859 7.82031 3.30859H6.17969C5.95317 3.30859 5.76953 3.49223 5.76953 3.71875V4.25682C5.58332 4.34044 5.40657 4.44284 5.24048 4.56332L4.77356 4.29373C4.67936 4.23932 4.56731 4.22458 4.46234 4.25275C4.35725 4.28088 4.26768 4.34963 4.21329 4.44385L3.39298 5.86469C3.33859 5.95889 3.32385 6.07086 3.35199 6.17591C3.38015 6.281 3.44889 6.37057 3.54309 6.42496L4.00775 6.6932C3.99738 6.79506 3.99219 6.89754 3.99219 7C3.99219 7.10246 3.99738 7.20494 4.00775 7.30674L3.54309 7.57498C3.44889 7.62937 3.38015 7.71898 3.35199 7.82403C3.32385 7.92911 3.33859 8.04106 3.39298 8.13526L4.21329 9.55609C4.26768 9.65029 4.35728 9.71904 4.46234 9.7472C4.56745 9.77539 4.67939 9.76062 4.77356 9.70621L5.24048 9.43663C5.40654 9.55713 5.58332 9.65954 5.76953 9.74312V10.2812C5.76953 10.5078 5.95317 10.6914 6.17969 10.6914H7.82031C8.04683 10.6914 8.23047 10.5078 8.23047 10.2812V9.74318C8.41668 9.65959 8.59343 9.55716 8.75952 9.43668L9.22644 9.70627C9.32061 9.76065 9.43264 9.77539 9.53766 9.74725C9.64275 9.71912 9.73232 9.65037 9.78671 9.55615L10.607 8.13531C10.6614 8.04111 10.6761 7.92914 10.648 7.82409C10.6198 7.719 10.5511 7.62943 10.4569 7.57504L9.99225 7.3068C10.0026 7.20494 10.0078 7.10246 10.0078 7C10.0078 6.89754 10.0026 6.79506 9.99225 6.69326L10.4569 6.42502C10.5511 6.3706 10.6198 6.28102 10.648 6.17594ZM9.14323 6.55988C9.1726 6.70379 9.1875 6.85188 9.1875 7C9.1875 7.14812 9.1726 7.29622 9.14323 7.44013C9.1079 7.61305 9.18717 7.78917 9.34 7.87741L9.69153 8.08035L9.28137 8.79074L8.92691 8.5861C8.77401 8.49781 8.58167 8.51731 8.44955 8.63455C8.22587 8.8331 7.97057 8.981 7.69073 9.07419C7.52317 9.12997 7.41013 9.28673 7.41013 9.46334V9.87109H6.58982V9.46334C6.58982 9.28676 6.47678 9.12997 6.30921 9.07419C6.02938 8.981 5.77407 8.8331 5.5504 8.63455C5.4183 8.51728 5.22597 8.49781 5.07303 8.5861L4.71857 8.79074L4.30842 8.08035L4.65995 7.87741C4.81277 7.78917 4.89204 7.61305 4.85672 7.44013C4.8274 7.29622 4.8125 7.14812 4.8125 7C4.8125 6.85188 4.8274 6.70379 4.85677 6.55988C4.8921 6.38695 4.81283 6.21083 4.66 6.12259L4.30847 5.91965L4.71863 5.20926L5.07309 5.4139C5.22602 5.50222 5.41833 5.48272 5.55045 5.36545C5.77413 5.1669 6.02943 5.019 6.3093 4.92581C6.47683 4.87 6.58987 4.71324 6.58987 4.53666V4.12891H7.41018V4.53666C7.41018 4.71324 7.52322 4.87 7.69076 4.92581C7.97062 5.019 8.22593 5.1669 8.4496 5.36545C8.5817 5.48272 8.77403 5.50219 8.92697 5.4139L9.28143 5.20926L9.69158 5.91965L9.34005 6.12259C9.18717 6.21083 9.1079 6.38695 9.14323 6.55988Z" fill="#EB5725"/>
<path d="M7 5.49609C6.17075 5.49609 5.49609 6.17075 5.49609 7C5.49609 7.82925 6.17075 8.50391 7 8.50391C7.82925 8.50391 8.50391 7.82925 8.50391 7C8.50391 6.17075 7.82925 5.49609 7 5.49609ZM7 7.68359C6.62307 7.68359 6.31641 7.37693 6.31641 7C6.31641 6.62307 6.62307 6.31641 7 6.31641C7.37693 6.31641 7.68359 6.62307 7.68359 7C7.68359 7.37693 7.37693 7.68359 7 7.68359Z" fill="#EB5725"/>
</svg>
