<svg width="14" height="14" viewBox="0 0 14 14" fill="none" xmlns="http://www.w3.org/2000/svg">
<path d="M5.35139 7.32974C5.32894 7.21736 4.55561 3.35068 4.53108 3.22815C4.49277 3.03644 4.32441 2.89844 4.12891 2.89844H3.30859C3.11309 2.89844 2.94473 3.03644 2.90642 3.22815C2.88151 3.35275 2.10738 7.22337 2.08611 7.32971C2.04168 7.55185 2.18575 7.76792 2.40786 7.81233C2.62998 7.85676 2.84607 7.71269 2.89048 7.49057L3.15265 6.17969H4.28485L4.54702 7.4906C4.59145 7.71282 4.80763 7.85679 5.02964 7.81236C5.25175 7.76792 5.39582 7.55185 5.35139 7.32974ZM3.31671 5.35938L3.64484 3.71875H3.79266L4.12079 5.35938H3.31671Z" fill="#EB5725"/>
<path d="M11.9219 6.17969H10.6914V5.76953C10.6914 5.54302 10.5078 5.35938 10.2812 5.35938C10.0547 5.35938 9.87109 5.54302 9.87109 5.76953V6.17969H8.64062C8.41411 6.17969 8.23047 6.36333 8.23047 6.58984C8.23047 6.81636 8.41411 7 8.64062 7H8.73988C8.97359 7.75502 9.32545 8.33454 9.71264 8.79895C9.3975 9.0872 9.07862 9.32359 8.79457 9.55082C8.61768 9.69232 8.589 9.95042 8.73053 10.1273C8.87212 10.3043 9.13024 10.3328 9.30702 10.1913C9.59265 9.96283 9.93502 9.70889 10.2812 9.39116C10.6277 9.70911 10.9707 9.96352 11.2555 10.1913C11.4324 10.3329 11.6905 10.3042 11.832 10.1273C11.9735 9.95042 11.9448 9.69229 11.7679 9.55082C11.4846 9.32411 11.1653 9.08748 10.8499 8.79895C11.2371 8.33454 11.5889 7.75502 11.8226 7H11.9219C12.1484 7 12.332 6.81636 12.332 6.58984C12.332 6.36333 12.1484 6.17969 11.9219 6.17969ZM10.2812 8.19615C10.0194 7.86748 9.78389 7.47518 9.60632 6.99727H10.9561C10.7786 7.47518 10.5431 7.86748 10.2812 8.19615Z" fill="#EB5725"/>
<path d="M12.7695 2.48828H6.85232L6.6765 1.07784C6.59969 0.463367 6.0748 0 5.45554 0H1.23047C0.551988 0 0 0.551988 0 1.23047V10.2812C0 10.9597 0.551988 11.5117 1.23047 11.5117H4.68899L4.86257 12.9222C4.93924 13.5354 5.46413 14 6.08355 14H12.7695C13.448 14 14 13.448 14 12.7695V3.71875C14 3.04027 13.448 2.48828 12.7695 2.48828ZM1.23047 10.6914C1.00431 10.6914 0.820312 10.5074 0.820312 10.2812V1.23047C0.820312 1.00431 1.00431 0.820312 1.23047 0.820312H5.45554C5.66196 0.820312 5.83693 0.97475 5.8625 1.17945C5.92195 1.65621 6.98928 10.2185 7.04823 10.6914H1.23047ZM5.65261 12.626L5.51548 11.5117H6.6159L5.65261 12.626ZM13.1797 12.7695C13.1797 12.9957 12.9957 13.1797 12.7695 13.1797H6.25827L7.81971 11.3736C7.89964 11.2834 7.93546 11.1637 7.91894 11.0448L6.95458 3.30859H12.7695C12.9957 3.30859 13.1797 3.49259 13.1797 3.71875V12.7695Z" fill="#EB5725"/>
</svg>
