<svg width="18" height="18" viewBox="0 0 18 18" fill="none" xmlns="http://www.w3.org/2000/svg">
<path d="M10.8682 11.625H10.875M7.125 11.625H7.13173" stroke="white" stroke-width="1.5" stroke-linecap="round" stroke-linejoin="round"/>
<path d="M3.20086 14.1335C3.36952 15.3863 4.4071 16.3676 5.66975 16.4257C6.7322 16.4745 7.81148 16.5 9 16.5C10.1885 16.5 11.2678 16.4745 12.3302 16.4257C13.5929 16.3676 14.6305 15.3863 14.7992 14.1335C14.9093 13.316 15 12.4782 15 11.625C15 10.7718 14.9093 9.93398 14.7992 9.11648C14.6305 7.86375 13.5929 6.88237 12.3302 6.82432C11.2678 6.77548 10.1885 6.75 9 6.75C7.81148 6.75 6.7322 6.77548 5.66975 6.82432C4.4071 6.88237 3.36952 7.86375 3.20086 9.11648C3.09079 9.93398 3 10.7718 3 11.625C3 12.4782 3.09079 13.316 3.20086 14.1335Z" stroke="white"/>
<path d="M5.625 6.75V4.875C5.625 3.01104 7.13604 1.5 9 1.5C10.864 1.5 12.375 3.01104 12.375 4.875V6.75" stroke="white" stroke-linecap="round" stroke-linejoin="round"/>
</svg>
