<svg width="12" height="15" viewBox="0 0 12 15" fill="none" xmlns="http://www.w3.org/2000/svg">
<path d="M5.625 0C3.28125 0 1.40625 1.875 1.40625 4.21875V6.09375C0.609375 6.09375 0 6.70312 0 7.5V13.5938C0 14.3906 0.609375 15 1.40625 15H9.84375C10.6406 15 11.25 14.3906 11.25 13.5938V7.5C11.25 6.70312 10.6406 6.09375 9.84375 6.09375V4.21875C9.84375 1.875 7.96875 0 5.625 0ZM10.3125 7.5V13.5938C10.3125 13.875 10.125 14.0625 9.84375 14.0625H1.40625C1.125 14.0625 0.9375 13.875 0.9375 13.5938V7.5C0.9375 7.21875 1.125 7.03125 1.40625 7.03125H9.84375C10.125 7.03125 10.3125 7.21875 10.3125 7.5ZM2.34375 6.09375V4.21875C2.34375 2.39062 3.79688 0.9375 5.625 0.9375C7.45312 0.9375 8.90625 2.39062 8.90625 4.21875V6.09375H2.34375Z" fill="#EB5725"/>
<path d="M5.625 8.4375C4.82812 8.4375 4.21875 9.04688 4.21875 9.84375C4.21875 10.4531 4.59375 10.9687 5.15625 11.1562V12.1875C5.15625 12.4688 5.34375 12.6563 5.625 12.6563C5.90625 12.6563 6.09375 12.4688 6.09375 12.1875V11.1562C6.65625 10.9687 7.03125 10.4531 7.03125 9.84375C7.03125 9.04688 6.42188 8.4375 5.625 8.4375ZM5.625 10.3125C5.34375 10.3125 5.15625 10.125 5.15625 9.84375C5.15625 9.5625 5.34375 9.375 5.625 9.375C5.90625 9.375 6.09375 9.5625 6.09375 9.84375C6.09375 10.125 5.90625 10.3125 5.625 10.3125Z" fill="#EB5725"/>
</svg>
