<svg width="44" height="44" viewBox="0 0 44 44" fill="none" xmlns="http://www.w3.org/2000/svg">
<path d="M3.66699 19.25V20.1667C3.66699 25.3521 3.66699 27.9448 5.27791 29.5557C6.88882 31.1667 9.48154 31.1667 14.667 31.1667C17.0938 31.1071 22.0003 32.0833 26.0989 35.1395C27.5506 36.1044 29.2931 36.6667 31.167 36.6667C36.2296 36.6667 40.3337 32.5626 40.3337 27.5V20.1667" fill="#34C759"/>
<path d="M3.66699 19.25V20.1667C3.66699 25.3521 3.66699 27.9448 5.27791 29.5557C6.88882 31.1667 9.48154 31.1667 14.667 31.1667C17.0938 31.1071 22.0003 32.0833 26.0989 35.1395C27.5506 36.1044 29.2931 36.6667 31.167 36.6667C36.2296 36.6667 40.3337 32.5626 40.3337 27.5V20.1667" stroke="#121212" stroke-width="2.75"/>
<path d="M31.167 29.3335C36.2296 29.3335 40.3337 25.2294 40.3337 20.1668C40.3337 18.1028 39.6515 16.1981 38.5003 14.6659C34.6036 9.47949 29.3337 7.3335 22.0003 7.3335C14.667 7.3335 3.66699 12.5861 3.66699 19.2502C3.66699 21.7814 5.71902 23.8335 8.25033 23.8335H14.667C17.0938 23.7739 22.0003 24.7502 26.0989 27.8063C27.5506 28.7712 29.2931 29.3335 31.167 29.3335Z" fill="#34C759" stroke="#121212" stroke-width="2.75"/>
<path d="M33.917 20.1665C33.917 21.6852 32.6857 22.9165 31.167 22.9165C29.6483 22.9165 28.417 21.6852 28.417 20.1665C28.417 18.6478 29.6483 17.4165 31.167 17.4165C32.6857 17.4165 33.917 18.6478 33.917 20.1665Z" fill="#121212" stroke="#121212" stroke-width="2.75"/>
</svg>
