<svg width="13" height="13" viewBox="0 0 13 13" fill="none" xmlns="http://www.w3.org/2000/svg">
<path d="M0.351413 6.6126C0.33188 5.80855 0.471166 5.00856 0.761293 4.25843C1.05142 3.5083 1.48669 2.82278 2.04216 2.24113C2.59764 1.65949 3.2624 1.19314 3.99839 0.86881C4.73438 0.544479 5.52712 0.368534 6.33121 0.351054C7.1353 0.333573 7.93494 0.474901 8.68432 0.766941C9.43371 1.05898 10.1181 1.496 10.6983 2.05295C11.2786 2.60991 11.7432 3.27587 12.0657 4.01268C12.3881 4.74949 12.562 5.54268 12.5775 6.34681C12.5794 6.43541 12.5794 6.52401 12.5775 6.6126M0.391769 12.239C0.796129 12.1032 1.20049 11.9703 1.75215 11.7508C2.30094 11.5342 2.99699 11.2309 3.4996 10.9739C4.00221 10.7169 4.30833 10.506 4.66644 10.2952C5.04996 10.1216 5.38368 9.85446 5.63691 9.5182C5.80676 9.15418 5.87461 8.75089 5.83321 8.35133C5.81921 8.15417 5.78633 7.9588 5.73503 7.76791C5.68881 7.57618 5.68881 7.3762 5.73503 7.18446C5.79296 7.0054 5.93719 6.87832 5.54152 6.21403C5.14585 5.54974 4.21291 4.34531 4.18114 4.17201C4.14648 3.99872 5.01584 4.85651 5.54152 5.43707C6.06718 6.01473 6.24913 6.32087 6.41667 6.40754C6.44777 6.42732 6.48396 6.43762 6.52082 6.43718C6.55769 6.43674 6.59362 6.42558 6.62425 6.40507C6.65487 6.38455 6.67886 6.35556 6.69329 6.32163C6.70772 6.28771 6.71196 6.25032 6.70549 6.21403C6.68815 6.05804 6.50619 5.87899 6.59862 5.70855C6.77929 5.50952 7.02311 5.37895 7.28891 5.33888C7.36795 5.315 7.45304 5.32126 7.52773 5.35647C7.60242 5.39168 7.6614 5.45332 7.69327 5.52949C7.77695 5.67679 7.85792 5.88764 7.77695 6.01762C7.69328 6.15047 7.45346 6.19958 7.29171 6.31801C7.12997 6.43354 7.0462 6.61839 7.17039 6.61549C7.29747 6.6126 7.63252 6.42198 7.97046 6.30932C8.25859 6.22923 8.55081 6.16464 8.84586 6.11581C9.03936 6.0696 9.09137 6.01183 9.42638 5.9223C9.80731 5.81633 10.1985 5.75146 10.5932 5.72879C10.7983 5.74611 10.5817 5.90209 10.3016 6.01762C10.0214 6.13602 9.67768 6.21689 9.42638 6.30932C9.178 6.40464 9.01916 6.51441 8.74764 6.60104C8.44647 6.66722 8.15313 6.76501 7.87249 6.89277C7.65878 7.03141 7.61826 7.24223 7.48548 7.47619C7.3527 7.71015 7.12733 7.96432 7.11578 8.15782C7.10133 8.35133 7.29773 8.48131 7.38726 8.64306C7.47679 8.8048 7.46237 8.99541 7.59522 9.14274C7.83224 9.32588 8.0878 9.48367 8.35773 9.61352C8.70722 9.82724 9.12024 10.1392 9.41196 10.2865C9.70655 10.4338 9.87695 10.4107 10.1947 10.5609C10.5816 10.7907 10.9841 10.9934 11.3991 11.1674C11.8294 11.3031 12.2251 11.2511 12.3609 11.3552C12.4966 11.4592 12.3724 11.7191 12.1443 11.7884C11.8941 11.8274 11.6381 11.7762 11.4222 11.644C11.2604 11.5487 11.272 11.4734 10.9658 11.3552C10.6626 11.2367 10.0445 11.0779 9.42927 10.8497C8.8112 10.6215 8.19888 10.3298 7.67899 10.1969C7.26622 10.0812 6.82959 10.0812 6.41683 10.1969C6.14581 10.3035 5.88483 10.434 5.63697 10.5869C5.39149 10.7053 5.11422 10.7804 4.76485 10.9739C4.36648 11.2419 3.94276 11.4702 3.4998 11.6555C3.00877 11.8201 2.45135 11.8317 2.13942 11.9472C1.82748 12.0628 1.76392 12.2794 1.65419 12.3343C1.54445 12.3892 1.38557 12.2823 1.16895 12.239C0.910963 12.2056 0.649758 12.2056 0.391769 12.239Z" stroke="#42A8FF" stroke-width="0.7" stroke-linecap="round" stroke-linejoin="round"/>
</svg>
