<svg width="44" height="45" viewBox="0 0 44 45" fill="none" xmlns="http://www.w3.org/2000/svg">
<path d="M10.7441 17.2676C9.99363 17.2676 9.38507 17.8762 9.38507 18.6267C9.38507 19.3772 9.99363 19.9857 10.7441 19.9857H25.3163C26.0668 19.9857 26.6753 19.3772 26.6753 18.6267C26.6753 17.8762 26.0668 17.2676 25.3163 17.2676H10.7441Z" fill="#EA5823"/>
<path d="M17.2963 24.9825H10.7441C9.99363 24.9825 9.38507 25.5911 9.38507 26.3416C9.38507 27.0921 9.99363 27.7007 10.7441 27.7007H17.2963C18.0468 27.7007 18.6554 27.0921 18.6554 26.3416C18.6554 25.5911 18.0468 24.9825 17.2963 24.9825Z" fill="#EA5823"/>
<path d="M17.0955 42.2819H6.75151C4.52718 42.2819 2.71963 40.4668 2.71963 38.2349V10.7064C2.71963 8.4745 4.52718 6.6594 6.75151 6.6594H9.55873V7.00067C9.55873 8.98339 11.1715 10.5946 13.1542 10.5946H26.1408C28.1235 10.5946 29.7362 8.98339 29.7362 7.00067V6.6594H32.5299C34.7904 6.6594 36.5602 8.43674 36.5602 10.7064V18.453C36.5602 19.2035 37.1688 19.8121 37.9193 19.8121C38.6698 19.8121 39.2784 19.2035 39.2784 18.453V10.7064C39.2784 6.97651 36.2507 3.94128 32.5284 3.94128H29.7347V3.59396C29.7347 1.61124 28.122 0 26.1393 0H13.1527C11.17 0 9.55722 1.61124 9.55722 3.59396V3.94128H6.75151C3.0292 3.94128 0 6.97651 0 10.7064V38.2349C0 41.9648 3.0292 45 6.75151 45H17.0955C17.846 45 18.4545 44.3914 18.4545 43.6409C18.4545 42.8904 17.846 42.2819 17.0955 42.2819ZM12.2784 3.59396C12.2784 3.11074 12.671 2.71812 13.1542 2.71812H26.1408C26.624 2.71812 27.0166 3.11074 27.0166 3.59396V6.99916C27.0166 7.48238 26.624 7.875 26.1408 7.875H13.1542C12.671 7.875 12.2784 7.48238 12.2784 6.99916V3.59396Z" fill="#EA5823"/>
<path d="M42.1248 24.5507C40.2644 22.6888 37.0163 22.6872 35.1544 24.5507L23.1055 36.5995C22.7175 36.9876 22.4638 37.4799 22.3716 38.022L21.7102 41.9315C21.5698 42.7696 21.8461 43.6304 22.4471 44.2299C22.944 44.7267 23.6159 44.9985 24.306 44.9985C24.4525 44.9985 24.5975 44.9864 24.7425 44.9622L28.6505 44.3023C29.1926 44.2102 29.6849 43.9565 30.073 43.5685L42.1218 31.5196C44.0441 29.5988 44.0441 26.473 42.1248 24.5507ZM28.199 41.6235L24.3921 42.3831L25.0294 38.5218L33.6654 29.8857L36.7928 33.0131L28.199 41.6235ZM40.201 29.5973L38.7121 31.0893L35.5862 27.9634L37.0767 26.473C37.4935 26.0562 38.0492 25.8252 38.6381 25.8252C39.23 25.8252 39.7842 26.0547 40.201 26.473C41.0633 27.3352 41.0633 28.7351 40.201 29.5973Z" fill="#EA5823"/>
</svg>
