<svg width="44" height="44" viewBox="0 0 44 44" fill="none" xmlns="http://www.w3.org/2000/svg">
<path d="M22 9.1665C22 7.33317 22.7333 3.6665 25.6667 3.6665" stroke="#FF383C" stroke-width="2.75" stroke-linecap="round" stroke-linejoin="round"/>
<path d="M21.9997 9.1665C17.6121 9.1665 14.0552 12.4497 14.0552 16.4998C14.0552 18.7437 13.5461 21.2634 12.1699 23.1129C10.8534 24.8822 10.083 27.0246 10.083 29.3332C10.083 35.4083 15.4183 40.3332 21.9997 40.3332C28.581 40.3332 33.9164 35.4083 33.9164 29.3332C33.9164 27.0246 33.146 24.8822 31.8295 23.1129C30.4532 21.2634 29.9441 18.7437 29.9441 16.4998C29.9441 12.4497 26.3872 9.1665 21.9997 9.1665Z" fill="#FF383C"/>
<path d="M22 33.0756V25.5912C22 24.1396 22.4013 23.528 24.1129 23.9795C29.8513 25.4931 29.8513 33.1737 24.1129 34.6873C22.4013 35.1389 22 34.5273 22 33.0756Z" fill="#121212"/>
</svg>
