<svg width="14" height="14" viewBox="0 0 14 14" fill="none" xmlns="http://www.w3.org/2000/svg">
<path d="M9.33329 4.6665C9.19108 5.09314 8.89848 5.42062 8.48431 5.60423C7.15408 6.19396 6.19408 7.15395 5.60435 8.48419C5.42074 8.89835 5.09326 9.19095 4.66663 9.33317" fill="#FF3A2F"/>
<path d="M9.33329 4.6665C9.19108 5.09314 8.89848 5.42062 8.48431 5.60423C7.15408 6.19396 6.19408 7.15395 5.60435 8.48419C5.42074 8.89835 5.09326 9.19095 4.66663 9.33317" stroke="#FF3A2F" stroke-width="1.5" stroke-linejoin="round"/>
<path d="M1.86663 12.1332L1.16663 12.8332L1.86663 12.1332ZM12.1333 1.8665L12.8333 1.1665L12.1333 1.8665Z" fill="#FF3A2F"/>
<path d="M1.86663 12.1332L1.16663 12.8332M12.1333 1.8665L12.8333 1.1665" stroke="#FF3A2F" stroke-width="1.5" stroke-linecap="round" stroke-linejoin="round"/>
<path d="M10.3765 1.41283L9.49438 2.2605L11.7347 4.52178L12.5967 3.68485C12.8554 3.38013 12.9346 3.15057 12.6125 2.72779L11.9675 2.04942L11.3136 1.40437C10.8956 1.02943 10.5663 1.23117 10.3765 1.41283Z" fill="#FF3A2F" stroke="#FF3A2F" stroke-width="1.5" stroke-linecap="round" stroke-linejoin="round"/>
<path d="M8.17343 2.19183C8.82128 1.5071 9.26496 1.99443 9.49281 2.26579L11.714 4.49586C11.9904 4.71749 12.4962 5.14271 11.8277 5.80484C11.7199 5.91168 11.6141 6.02356 11.4969 6.11999C11.0641 6.476 10.6488 6.18089 10.4287 5.9097L8.16789 3.64889C7.92983 3.43506 7.51852 3.04764 7.8659 2.52977C7.95952 2.41026 8.06907 2.30211 8.17343 2.19183Z" fill="#FF3A2F" stroke="#FF3A2F" stroke-width="1.5" stroke-linecap="round" stroke-linejoin="round"/>
<path d="M2.67596 12.6119L2.01018 11.9539L1.37787 11.2877C1.00266 10.9125 1.21913 10.5372 1.40442 10.3509L2.26896 9.48533L4.51864 11.7448L3.63316 12.6146C3.32349 12.8673 3.11116 12.9447 2.69467 12.6146M3.63023 8.12272C3.40238 7.85136 2.95868 7.36404 2.31083 8.04876C2.20649 8.15901 2.09693 8.26716 2.00331 8.38668C1.65594 8.90457 2.06721 9.29202 2.30526 9.50581L4.56613 11.7666C4.78619 12.0378 5.20153 12.3329 5.63429 11.9769C5.75153 11.8805 5.85727 11.7686 5.96513 11.6617C6.63357 10.9997 6.12782 10.5744 5.85138 10.3528L3.63023 8.12272Z" fill="#FF3A2F"/>
<path d="M2.67596 12.6119L2.01018 11.9539L1.37787 11.2877C1.00266 10.9125 1.21913 10.5372 1.40442 10.3509L2.26896 9.48533L4.51864 11.7448L3.63316 12.6146C3.32349 12.8673 3.11116 12.9447 2.69467 12.6146M3.63023 8.12272C3.40238 7.85136 2.95868 7.36404 2.31083 8.04876C2.20649 8.15901 2.09693 8.26716 2.00331 8.38668C1.65594 8.90457 2.06721 9.29202 2.30526 9.50581L4.56613 11.7666C4.78619 12.0378 5.20153 12.3329 5.63429 11.9769C5.75153 11.8805 5.85727 11.7686 5.96513 11.6617C6.63357 10.9997 6.12782 10.5744 5.85138 10.3528L3.63023 8.12272Z" stroke="#FF3A2F" stroke-width="1.5" stroke-linecap="round" stroke-linejoin="round"/>
</svg>
