<svg width="200" height="200" viewBox="0 0 200 200" fill="none" xmlns="http://www.w3.org/2000/svg">
<rect width="200" height="200" rx="70" fill="#141414"/>
<path d="M97 175C124.614 175 147 173.657 147 172C147 170.343 124.614 169 97 169C69.3858 169 47 170.343 47 172C47 173.657 69.3858 175 97 175Z" fill="#B2CBA4"/>
<path fill-rule="evenodd" clip-rule="evenodd" d="M127.734 70.0733C126.82 70.2678 126.682 72.3251 126.864 72.6457C127.559 73.8599 128.024 74.5946 128.335 75.7867C128.608 76.8365 128.174 76.5233 128.288 77.0123C128.312 77.1151 128.718 77.175 129.18 76.8051C129.797 76.3086 129.384 75.4791 129.424 75.5257C130.417 76.6686 133.767 80.7548 134.318 80.4932C134.61 80.3561 130.741 75.8553 130.798 75.8985C131.262 76.2524 133.875 78.5069 134.806 79.3893C135.709 80.243 135.915 80.2308 136.051 80.2626C136.186 80.2946 135.902 79.8776 135.617 79.5826C134.697 78.634 131.958 75.5559 131.597 75.2357C131.522 75.1712 134.845 77.7237 136.145 78.5298C137.018 79.0695 137.759 79.3114 136.458 78.1541C135.532 77.33 134.477 76.6008 133.455 75.8227C132.997 75.4752 132.249 74.7634 131.792 74.4141C131.592 74.2625 135.965 77.3486 136.262 77.0498C136.464 76.8433 133.791 74.8993 132.943 74.1468C132.112 73.4097 128.247 69.9665 127.734 70.0733Z" fill="#8D4B3A"/>
<path fill-rule="evenodd" clip-rule="evenodd" d="M47.4618 61.5802C48.3205 62.3338 47.9742 65.0116 47.7192 65.3129C46.7463 66.4594 46.1136 67.1258 45.5271 68.4579C45.0097 69.6327 45.5122 69.4782 45.2861 70.0329C45.2379 70.1491 44.8229 69.9963 44.4525 69.2731C43.9582 68.3012 44.5623 67.4839 44.5128 67.52C43.2616 68.4109 38.9902 71.7022 38.505 71.0646C38.2483 70.7295 43.132 67.2015 43.0664 67.224C42.5239 67.411 39.4107 68.8017 38.2831 69.396C37.1902 69.9696 36.9883 69.8408 36.846 69.8042C36.7047 69.7697 37.0839 69.401 37.4353 69.1861C38.5679 68.502 41.9992 66.1408 42.432 65.9386C42.521 65.8976 38.6355 67.2679 37.16 67.5615C36.1699 67.758 35.3798 67.6498 36.9381 66.9114C38.0471 66.3891 39.2615 66.055 40.4561 65.6425C40.9901 65.4586 41.8977 64.9773 42.4306 64.7914C42.6643 64.7098 37.614 66.17 37.392 65.628C37.2396 65.2552 40.3409 64.2884 41.3551 63.8137C42.3497 63.3494 46.9814 61.158 47.4618 61.5802Z" fill="#8D4B3A"/>
<path fill-rule="evenodd" clip-rule="evenodd" d="M91.7882 48.4881C91.7882 48.4881 94.6132 49.7316 96.7613 50.6806C97.8848 51.1772 99.9011 50.9197 101.973 54.17C105.681 59.9858 110.394 70.9913 110.394 70.9913C110.394 70.9913 123.076 70.4344 127.582 70.0085C128.157 69.9546 129.014 71.1755 129.51 71.917C130.41 73.265 107.597 81.0015 105.028 78.9299C101.334 75.9518 90.8622 52.1464 91.7882 48.4881Z" fill="#8D4B3A"/>
<path fill-rule="evenodd" clip-rule="evenodd" d="M93.7822 77.2819C93.7822 77.2819 94.6422 80.2581 97.5443 90.2815C100.675 101.09 101.505 122.392 99.9637 125.503C97.9584 129.555 77.5411 145.241 73.8381 156.576C72.7079 160.036 70.3142 168.809 74.8194 170.188C74.8194 170.188 70.3919 171.193 69.671 162.691C68.2005 161.883 66.1645 160.062 66.1216 158.114C66.0471 154.701 69.3704 155.915 69.8573 154.436C77.4176 131.487 76.813 127.837 88.6289 122.455C88.6289 122.455 64.4662 94.0836 81.8619 81.9105C85.7779 79.17 93.7822 77.2819 93.7822 77.2819Z" fill="#8D4B3A"/>
<path fill-rule="evenodd" clip-rule="evenodd" d="M87.9433 47.5347C87.9433 47.5347 83.6882 44.9071 79.0987 47.6618C75.9786 49.5361 69.5505 64.8844 68.9928 67.0373C68.8853 67.4527 49.3429 59.0861 46.3302 61.9368C44.2224 63.9299 60.3082 74.3255 71.988 75.2324C75.1743 71.6852 78.1365 67.7245 81.2274 62.3098C84.9748 55.7384 86.3376 49.6163 87.9433 47.5347Z" fill="#8D4B3A"/>
<path fill-rule="evenodd" clip-rule="evenodd" d="M86.6164 38.189C86.6164 38.189 86.3521 46.0481 83.4158 48.1407C80.9942 49.8692 92.2885 54.5515 93.7391 52.6547C93.7391 52.6547 93.823 50.2475 93.6925 49.0404C93.528 47.5114 92.7501 43.4826 92.7501 43.4826C92.7501 43.4826 93.2127 40.2419 86.6164 38.189Z" fill="#8D4B3A"/>
<path fill-rule="evenodd" clip-rule="evenodd" d="M84.707 42.6621C84.707 42.6621 89.0916 49.0533 93.5935 48.491L93.1157 43.2377L84.707 42.6621Z" fill="#0E0705"/>
<path fill-rule="evenodd" clip-rule="evenodd" d="M96.8079 67.4447C96.6178 68.3342 100.123 87.922 93.7489 89.1156C93.6538 89.5767 81.1289 93.8463 69.9279 82.8763C67.2064 75.761 75.5486 73.9985 77.1506 70.3487C76.3879 68.2875 78.3606 53.8739 77.7512 52.2024C76.5044 48.782 81.2168 47.9521 84.7879 46.469C84.7879 46.469 87.2415 51.8467 91.2793 51.0994C92.3271 50.9047 93.2453 48.5243 93.6892 49.0437C94.2293 49.6743 96.7165 56.3307 97.7818 58.7424C100.112 64.0058 96.9424 66.8164 96.8079 67.4447Z" fill="#8D4B3A"/>
<mask id="mask0_0_16343" style="mask-type:luminance" maskUnits="userSpaceOnUse" x="69" y="46" width="30" height="45">
<path d="M96.8079 67.4447C96.6178 68.3342 100.123 87.922 93.7489 89.1156C93.6538 89.5767 81.1289 93.8463 69.9279 82.8763C67.2064 75.761 75.5486 73.9985 77.1506 70.3487C76.3879 68.2875 78.3606 53.8739 77.7512 52.2024C76.5044 48.782 81.2168 47.9521 84.7879 46.469C84.7879 46.469 87.2415 51.8467 91.2793 51.0994C92.3271 50.9047 93.2453 48.5243 93.6892 49.0437C94.2293 49.6743 96.7165 56.3307 97.7818 58.7424C100.112 64.0058 96.9424 66.8164 96.8079 67.4447Z" fill="white"/>
</mask>
<g mask="url(#mask0_0_16343)">
<path fill-rule="evenodd" clip-rule="evenodd" d="M74.9266 68.9396C74.8891 69.1453 74.8143 68.9886 74.8843 69.1854C74.9118 69.2611 75.0042 69.2896 75.0664 69.3386C75.4756 69.6645 75.9021 69.9433 76.3439 70.1847C76.8005 70.4323 77.2719 70.6362 77.756 70.7956C78.4023 71.0085 79.0709 71.1528 79.7544 71.2267C80.7374 71.3327 81.7352 71.2855 82.7756 71.1946C82.8529 71.1955 82.9154 71.1341 82.9154 71.0584C82.9154 70.9827 82.8556 70.9203 82.7783 70.9194C81.6582 70.8028 80.6178 70.5703 79.5874 70.3094C78.9686 70.1526 78.36 69.9789 77.756 69.7768C77.1596 69.5764 76.5686 69.3573 75.9745 69.0901C75.7127 68.9716 75.478 68.7116 75.1812 68.7294C74.974 68.7419 75.1489 68.7525 74.974 68.8665C74.9541 68.8532 74.9266 68.8585 74.9142 68.879C74.9015 68.8995 74.9067 68.9262 74.9266 68.9396Z" fill="black"/>
<path fill-rule="evenodd" clip-rule="evenodd" d="M92.7514 59.7662C93.0933 59.6388 92.8188 59.9505 93.0359 59.6593C93.061 59.6245 93.0434 59.5747 93.0434 59.531C93.0434 58.8969 92.9486 58.2681 92.8586 57.642C92.7215 56.6739 92.5593 55.7076 92.3322 54.7564C92.18 54.1196 91.9756 53.5068 91.8058 52.8745C91.7935 52.797 91.7186 52.7436 91.6412 52.7569C91.5615 52.7694 91.509 52.8433 91.5241 52.9208C91.5615 53.5531 91.579 54.1784 91.6539 54.8063C91.8285 56.2482 92.058 57.6785 92.2727 59.1151C92.3026 59.3208 92.2428 59.5782 92.3899 59.7252C92.6569 59.9906 92.2951 59.7074 92.6668 59.7733C92.6693 59.7973 92.6892 59.8151 92.7143 59.8134C92.7363 59.8107 92.7538 59.7902 92.7514 59.7662Z" fill="black"/>
</g>
<path fill-rule="evenodd" clip-rule="evenodd" d="M71.7833 75.2278C71.7833 75.2278 75.972 77.5738 85.5382 80.4185C94.883 83.1996 113.998 90.9359 121.096 96.8967C125.443 100.55 142.524 105.257 152.814 107.624C154.611 108.038 158.533 100.794 160.775 96.8535C160.775 96.8535 163.023 102.921 159.549 106.886C158.619 108.317 159.846 113.196 157.579 114.061C155.961 114.676 152.735 111.755 152.307 111.8C132.781 113.843 122.666 114.879 115.887 105.417C115.887 105.417 103.048 107.554 89.1503 105.081C81.4437 103.71 70.8872 100.764 67.0424 96.8705C63.2153 92.9929 64.3325 87.071 66.1206 83.3752C68.0561 79.3694 71.7833 75.2278 71.7833 75.2278Z" fill="#8D4B3A"/>
<path fill-rule="evenodd" clip-rule="evenodd" d="M94.1033 31.5664C94.1033 31.5664 96.7283 37.7262 100.925 40.2183C100.925 40.2183 100.589 41.185 99.6628 41.9956L97.1267 39.1874L99.2478 42.5245L96.3829 44.245L95.1808 41.3702L95.8863 44.8183L92.9256 45.4903C92.9253 45.4888 88.4767 35.7431 94.1033 31.5664Z" fill="black"/>
<path fill-rule="evenodd" clip-rule="evenodd" d="M87.132 45.1294C85.1531 44.5378 84.412 43.9485 83.4342 42.4886C78.919 35.7366 80.4924 31.4765 82.6998 30.1547C91.0183 25.1712 93.523 32.5174 93.523 32.5174C93.523 32.5174 95.136 42.8136 94.2214 44.3936C93.4025 45.8097 90.822 46.2324 87.132 45.1294Z" fill="#8D4B3A"/>
<path fill-rule="evenodd" clip-rule="evenodd" d="M74.8999 158.187C74.8999 158.187 73.6481 160.128 73.6652 162.655C73.6742 163.984 73.7758 167.653 75.2753 169.324C76.2806 170.445 75.2553 172.51 74.8694 172.693C74.4836 172.876 70.4493 171.162 68.1233 166.53C68.1233 166.53 68.0981 165.621 67.3308 164.443C66.5633 163.266 63.5403 160.612 63.3934 158.136C63.3934 158.136 65.7625 155.12 68.2902 154.318C68.2902 154.318 68.8373 152.686 69.6966 153.563C70.5974 154.481 71.8659 157.057 72.2255 158.893C72.2255 158.893 72.855 157.43 73.9042 157.221C74.9544 157.014 74.9244 157.614 74.8999 158.187Z" fill="black"/>
<mask id="mask1_0_16343" style="mask-type:luminance" maskUnits="userSpaceOnUse" x="63" y="153" width="13" height="20">
<path d="M74.8999 158.186C74.8999 158.186 73.6481 160.126 73.6652 162.653C73.6742 163.982 73.7758 167.651 75.2753 169.322C76.2806 170.444 75.2553 172.509 74.8694 172.692C74.4836 172.875 70.4493 171.161 68.1233 166.529C68.1233 166.529 68.0981 165.619 67.3308 164.442C66.5633 163.265 63.5403 160.611 63.3934 158.134C63.3934 158.134 65.7625 155.118 68.2902 154.317C68.2902 154.317 68.8373 152.684 69.6966 153.561C70.5974 154.48 71.8659 157.056 72.2255 158.892C72.2255 158.892 72.855 157.429 73.9042 157.22C74.9544 157.012 74.9244 157.613 74.8999 158.186Z" fill="white"/>
</mask>
<g mask="url(#mask1_0_16343)">
<path fill-rule="evenodd" clip-rule="evenodd" d="M72.7328 156.863C72.6005 157.172 72.4672 157.479 72.36 157.794C71.9203 159.095 71.7038 160.437 71.6391 161.733C71.5521 163.473 71.8056 165.148 72.4754 166.644C72.7602 167.279 73.0667 168.019 73.6065 168.496C73.95 168.799 74.3871 168.999 74.9695 168.996C75.0027 168.996 75.029 168.968 75.0295 168.936C75.0299 168.903 75.0019 168.875 74.9687 168.875C74.4236 168.874 74.0155 168.687 73.6948 168.398C73.1739 167.93 72.8852 167.204 72.6131 166.583C71.9699 165.108 71.7434 163.455 71.8389 161.745C71.909 160.465 72.1964 159.164 72.5548 157.855C72.6434 157.537 72.7196 157.215 72.8151 156.895C72.8235 156.873 72.8108 156.846 72.7888 156.839C72.7669 156.83 72.7412 156.841 72.7328 156.863Z" fill="white"/>
<path fill-rule="evenodd" clip-rule="evenodd" d="M75.5591 172.057C75.3699 172.061 75.2017 172.019 75.0444 171.952C74.79 171.846 74.5641 171.683 74.3301 171.559C73.8935 171.314 73.4843 171.041 73.0872 170.751C72.4826 170.312 71.9169 169.837 71.4033 169.312C70.8785 168.786 70.4257 168.234 70.0226 167.646C69.6186 167.057 69.2646 166.434 68.9431 165.768C68.6624 165.191 68.4577 164.582 68.1936 163.999C68.0788 163.746 67.9528 163.498 67.8044 163.258C67.6177 162.958 67.4179 162.67 67.2051 162.388C66.3688 161.274 65.3792 160.268 64.6294 159.09C64.4022 158.738 64.22 158.367 64.0547 157.988C63.8075 157.42 63.6022 156.83 63.3934 156.229C63.3887 156.215 63.377 156.211 63.3644 156.213C63.353 156.217 63.3473 156.231 63.3501 156.241C63.4968 156.752 63.632 157.258 63.8078 157.747C63.9873 158.245 64.2067 158.723 64.4869 159.178C65.2272 160.367 66.205 161.391 67.0347 162.513C67.2416 162.793 67.4388 163.077 67.62 163.371C67.7619 163.601 67.8836 163.844 67.9942 164.09C68.2559 164.673 68.4602 165.287 68.7383 165.865C69.0652 166.543 69.4222 167.178 69.8318 167.776C70.2431 168.377 70.7054 168.939 71.2403 169.474C71.6814 169.913 72.15 170.332 72.6646 170.698C73.1696 171.057 73.7155 171.364 74.2899 171.637C74.5253 171.76 74.7537 171.925 75.0109 172.032C75.1797 172.103 75.3592 172.148 75.5609 172.142C75.5851 172.142 75.6044 172.122 75.603 172.097C75.6016 172.074 75.5819 172.055 75.5591 172.057Z" fill="white"/>
<path fill-rule="evenodd" clip-rule="evenodd" d="M68.2813 153.798C68.2733 154.299 68.3653 154.771 68.5171 155.22C68.7485 155.908 69.1249 156.543 69.512 157.133C69.7713 157.484 70.0828 157.802 70.3261 158.166C70.4294 158.321 70.5205 158.481 70.5868 158.657C70.5891 158.665 70.5974 158.669 70.605 158.667C70.6124 158.665 70.616 158.657 70.6136 158.649C70.5505 158.396 70.4457 158.169 70.3131 157.95C70.1188 157.63 69.8739 157.34 69.6739 157.023C69.3382 156.551 69.0051 156.051 68.7609 155.508C68.5245 154.98 68.372 154.413 68.3689 153.8C68.3681 153.775 68.3489 153.756 68.3254 153.755C68.3012 153.756 68.2819 153.775 68.2813 153.798Z" fill="white"/>
<path fill-rule="evenodd" clip-rule="evenodd" d="M70.6591 160.365C70.492 161.425 70.4012 162.408 70.4793 163.361C70.5337 164.022 70.6748 164.669 70.8998 165.323C70.9067 165.344 70.9285 165.354 70.9486 165.347C70.9687 165.34 70.9808 165.319 70.9738 165.298C70.7187 164.484 70.6126 163.682 70.5914 162.856C70.5694 162.063 70.6251 161.25 70.7461 160.379C70.749 160.355 70.7316 160.331 70.7084 160.327C70.6852 160.324 70.6637 160.342 70.6591 160.365Z" fill="white"/>
<path fill-rule="evenodd" clip-rule="evenodd" d="M71.453 166.75L71.6497 167.073C71.6635 167.095 71.6914 167.102 71.7114 167.088C71.7334 167.076 71.7402 167.05 71.7279 167.029L71.5229 166.699C71.5088 166.679 71.4819 166.676 71.4621 166.689C71.4426 166.703 71.4391 166.731 71.453 166.75Z" fill="white"/>
<path fill-rule="evenodd" clip-rule="evenodd" d="M72.1145 168.055L72.3344 168.223C72.3532 168.236 72.3794 168.231 72.3929 168.212C72.4063 168.193 72.3999 168.165 72.3809 168.152L72.1702 167.988C72.1531 167.974 72.1255 167.977 72.1096 167.994C72.0934 168.012 72.0958 168.039 72.1145 168.055Z" fill="white"/>
<path fill-rule="evenodd" clip-rule="evenodd" d="M71.3796 159.885C71.4469 159.904 71.4916 159.932 71.5587 159.937C71.6437 159.946 71.7266 159.924 71.8093 159.92C72.3914 159.879 72.9419 159.931 73.4704 160.036C73.9449 160.13 74.4003 160.249 74.8277 160.421C74.8727 160.442 74.9255 160.421 74.9477 160.378C74.9679 160.332 74.9499 160.28 74.9037 160.257C74.3806 159.974 73.8114 159.719 73.1876 159.606C72.6581 159.507 72.0681 159.409 71.5206 159.616C71.4519 159.641 71.4112 159.681 71.3503 159.723C71.3051 159.731 71.275 159.775 71.284 159.82C71.2921 159.865 71.3344 159.894 71.3796 159.885Z" fill="white"/>
<path fill-rule="evenodd" clip-rule="evenodd" d="M71.1925 161.8C71.203 161.796 71.2168 161.806 71.223 161.863C71.2011 161.871 71.1884 161.896 71.1951 161.918C71.2031 161.942 71.2276 161.953 71.2514 161.947C71.32 162.065 71.1938 161.989 71.262 162.014L71.2995 162.03C71.3518 162.052 71.413 162.01 71.4711 162C72.0311 161.887 72.6213 161.867 73.197 161.927C73.5954 161.967 73.9801 162.044 74.3413 162.126C74.6153 162.186 74.8723 162.232 75.1041 162.31C75.1524 162.332 75.2114 162.31 75.2333 162.259C75.2568 162.211 75.2348 162.152 75.1861 162.13C74.967 161.997 74.7249 161.86 74.4465 161.757C74.0776 161.624 73.6612 161.544 73.2358 161.507C72.6161 161.452 71.9668 161.49 71.3864 161.694C71.3268 161.715 71.2447 161.714 71.2129 161.768L71.1925 161.8Z" fill="white"/>
<path fill-rule="evenodd" clip-rule="evenodd" d="M71.1492 163.844C71.2137 163.97 71.0833 163.883 71.2054 163.954C71.2971 164.007 71.4153 163.952 71.5221 163.943C72.1494 163.888 72.7717 163.813 73.3788 163.801C73.7992 163.79 74.2076 163.778 74.6053 163.834C74.6902 163.854 74.7712 163.798 74.7891 163.715C74.8067 163.633 74.7527 163.55 74.6676 163.532C74.1013 163.388 73.4953 163.317 72.8721 163.343C72.4024 163.365 71.9222 163.426 71.4554 163.542C71.3489 163.567 71.2162 163.555 71.148 163.64C71.0586 163.749 71.149 163.621 71.133 163.76C71.1105 163.765 71.0936 163.786 71.0991 163.812C71.1031 163.834 71.1266 163.849 71.1492 163.844Z" fill="white"/>
<path fill-rule="evenodd" clip-rule="evenodd" d="M71.3849 165.387C71.4276 165.42 71.4222 165.439 71.4739 165.455C71.5743 165.485 71.6821 165.447 71.7855 165.437C72.3761 165.391 72.9464 165.329 73.5094 165.291C73.7927 165.272 74.0721 165.255 74.3532 165.245C74.6355 165.232 74.9134 165.213 75.2016 165.238C75.2707 165.251 75.3373 165.207 75.3521 165.138C75.3651 165.068 75.3209 165.001 75.2518 164.988C74.9912 164.902 74.7353 164.832 74.4681 164.799C74.0737 164.75 73.6717 164.761 73.2707 164.81C72.7009 164.878 72.1279 165.009 71.5461 165.169C71.5022 165.183 71.4514 165.182 71.4163 165.212C71.3752 165.247 71.397 165.251 71.3711 165.298C71.3471 165.301 71.3321 165.325 71.3351 165.348C71.3385 165.374 71.3612 165.39 71.3849 165.387Z" fill="white"/>
<path fill-rule="evenodd" clip-rule="evenodd" d="M72.2959 167.069C72.427 167.076 72.5099 167.112 72.6388 167.101C72.7732 167.09 72.8995 167.042 73.0291 167.008C73.3345 166.928 73.6405 166.854 73.9462 166.783C74.4098 166.679 74.8611 166.566 75.2997 166.463C75.3615 166.456 75.4028 166.399 75.3956 166.34C75.3865 166.279 75.3309 166.236 75.2705 166.245C74.913 166.255 74.5497 166.242 74.1765 166.272C73.8101 166.303 73.4407 166.367 73.0825 166.47C72.8975 166.526 72.6997 166.567 72.5405 166.679C72.4148 166.769 72.3563 166.869 72.259 166.991C72.2362 167 72.2284 167.029 72.2372 167.047C72.2479 167.07 72.2746 167.08 72.2959 167.069Z" fill="white"/>
<path fill-rule="evenodd" clip-rule="evenodd" d="M72.9762 168.369C73.1655 168.32 73.3485 168.288 73.5349 168.231C73.808 168.15 74.0724 168.054 74.337 167.953C74.5113 167.886 74.6851 167.815 74.8541 167.735C75.1116 167.617 75.3566 167.482 75.6145 167.364C75.6837 167.339 75.7206 167.262 75.6958 167.192C75.6711 167.122 75.5959 167.086 75.5251 167.108C75.245 167.178 74.9664 167.239 74.6938 167.333C74.514 167.394 74.3373 167.467 74.1654 167.549C73.9057 167.669 73.6543 167.802 73.41 167.954C73.2441 168.057 73.0999 168.174 72.9392 168.288C72.9181 168.3 72.9087 168.326 72.9188 168.348C72.9285 168.368 72.9535 168.378 72.9762 168.369Z" fill="white"/>
</g>
<path fill-rule="evenodd" clip-rule="evenodd" d="M150.954 105.431C150.954 105.431 153.241 105.113 155.144 103.451C156.146 102.576 158.859 100.104 159.146 97.8768C159.339 96.3839 161.573 95.8126 161.964 95.9845C162.355 96.1576 163.689 100.332 161.698 105.118C161.698 105.118 161.025 105.731 160.634 107.081C160.243 108.431 160.206 112.454 158.426 114.181C158.426 114.181 154.594 114.355 152.338 112.963C152.338 112.963 150.744 113.614 150.848 112.391C150.956 111.109 152.079 108.467 153.235 106.996C153.235 106.996 151.715 107.474 150.872 106.816C150.03 106.155 150.504 105.786 150.954 105.431Z" fill="black"/>
<mask id="mask2_0_16343" style="mask-type:luminance" maskUnits="userSpaceOnUse" x="150" y="95" width="13" height="20">
<path d="M150.954 105.431C150.954 105.431 153.241 105.113 155.144 103.451C156.146 102.576 158.859 100.104 159.146 97.8768C159.339 96.3839 161.573 95.8126 161.964 95.9845C162.355 96.1576 163.689 100.332 161.698 105.118C161.698 105.118 161.025 105.731 160.634 107.081C160.243 108.431 160.206 112.454 158.426 114.181C158.426 114.181 154.594 114.355 152.338 112.963C152.338 112.963 150.744 113.614 150.848 112.391C150.956 111.109 152.079 108.467 153.235 106.996C153.235 106.996 151.715 107.474 150.872 106.816C150.03 106.155 150.504 105.786 150.954 105.431Z" fill="white"/>
</mask>
<g mask="url(#mask2_0_16343)">
<path fill-rule="evenodd" clip-rule="evenodd" d="M151.368 107.937C151.689 107.836 152.008 107.737 152.316 107.613C153.589 107.096 154.747 106.384 155.771 105.588C157.145 104.519 158.25 103.232 158.946 101.749C159.241 101.118 159.602 100.403 159.611 99.6833C159.616 99.2253 159.482 98.7638 159.1 98.3241C159.078 98.2991 159.04 98.2977 159.015 98.3182C158.99 98.339 158.986 98.3793 159.008 98.4041C159.363 98.8171 159.487 99.2492 159.478 99.6805C159.464 100.381 159.102 101.073 158.809 101.685C158.112 103.135 157.007 104.385 155.65 105.429C154.634 106.211 153.461 106.843 152.235 107.426C151.936 107.567 151.642 107.72 151.338 107.856C151.316 107.864 151.304 107.891 151.313 107.913C151.322 107.934 151.346 107.945 151.368 107.937Z" fill="white"/>
<path fill-rule="evenodd" clip-rule="evenodd" d="M161.033 95.8778C161.159 96.0182 161.237 96.1741 161.289 96.3359C161.375 96.5974 161.398 96.8765 161.458 97.1341C161.557 97.6248 161.616 98.1132 161.657 98.6024C161.719 99.3473 161.728 100.087 161.666 100.817C161.611 101.558 161.487 102.262 161.306 102.95C161.123 103.641 160.882 104.316 160.588 104.994C160.334 105.583 160.006 106.136 159.737 106.717C159.62 106.968 159.514 107.227 159.43 107.495C159.324 107.832 159.237 108.172 159.161 108.517C158.863 109.878 158.747 111.285 158.345 112.621C158.225 113.024 158.063 113.404 157.884 113.776C157.615 114.335 157.302 114.875 156.984 115.425C156.977 115.437 156.981 115.449 156.991 115.457C157.002 115.463 157.016 115.458 157.022 115.449C157.314 115.005 157.609 114.572 157.864 114.121C158.124 113.66 158.343 113.182 158.504 112.673C158.923 111.336 159.06 109.927 159.368 108.565C159.445 108.225 159.531 107.891 159.636 107.562C159.719 107.303 159.823 107.053 159.937 106.808C160.208 106.229 160.539 105.674 160.796 105.085C161.096 104.396 161.343 103.711 161.529 103.01C161.716 102.307 161.84 101.59 161.896 100.835C161.941 100.215 161.952 99.5865 161.894 98.9577C161.836 98.3406 161.711 97.7276 161.544 97.1143C161.483 96.8564 161.459 96.5752 161.373 96.3099C161.316 96.1353 161.233 95.9707 161.097 95.822C161.081 95.8044 161.053 95.8025 161.035 95.8197C161.017 95.8351 161.016 95.8627 161.033 95.8778Z" fill="white"/>
<path fill-rule="evenodd" clip-rule="evenodd" d="M151.951 113.309C152.336 112.988 152.633 112.611 152.875 112.202C153.245 111.579 153.48 110.88 153.675 110.2C153.771 109.776 153.808 109.332 153.926 108.909C153.976 108.73 154.037 108.557 154.128 108.391C154.132 108.384 154.13 108.375 154.123 108.371C154.117 108.367 154.108 108.37 154.104 108.377C153.953 108.59 153.849 108.818 153.771 109.061C153.655 109.417 153.595 109.792 153.486 110.15C153.347 110.712 153.186 111.291 152.933 111.831C152.689 112.355 152.358 112.841 151.896 113.243C151.877 113.259 151.875 113.286 151.891 113.305C151.906 113.321 151.934 113.323 151.951 113.309Z" fill="white"/>
<path fill-rule="evenodd" clip-rule="evenodd" d="M155.373 107.221C156.285 106.656 157.088 106.084 157.76 105.402C158.225 104.929 158.623 104.4 158.971 103.803C158.983 103.784 158.977 103.76 158.958 103.75C158.939 103.739 158.915 103.744 158.904 103.764C158.454 104.488 157.915 105.092 157.304 105.646C156.718 106.181 156.065 106.669 155.326 107.146C155.306 107.16 155.299 107.188 155.312 107.208C155.326 107.229 155.353 107.233 155.373 107.221Z" fill="white"/>
<path fill-rule="evenodd" clip-rule="evenodd" d="M159.692 102.453L159.808 102.093C159.816 102.068 159.803 102.042 159.78 102.036C159.757 102.027 159.732 102.039 159.724 102.062L159.608 102.432C159.602 102.455 159.617 102.479 159.64 102.485C159.663 102.491 159.687 102.476 159.692 102.453Z" fill="white"/>
<path fill-rule="evenodd" clip-rule="evenodd" d="M160.25 101.101L160.233 100.824C160.231 100.801 160.21 100.785 160.187 100.786C160.164 100.789 160.147 100.811 160.149 100.834L160.162 101.101C160.163 101.123 160.183 101.142 160.206 101.143C160.23 101.144 160.249 101.125 160.25 101.101Z" fill="white"/>
<path fill-rule="evenodd" clip-rule="evenodd" d="M154.54 106.99C154.51 106.927 154.502 106.875 154.462 106.821C154.414 106.75 154.344 106.701 154.286 106.642C153.875 106.227 153.554 105.777 153.289 105.308C153.051 104.887 152.844 104.464 152.695 104.029C152.682 103.981 152.631 103.954 152.584 103.966C152.536 103.98 152.508 104.028 152.521 104.078C152.648 104.659 152.827 105.256 153.148 105.803C153.419 106.268 153.729 106.779 154.244 107.059C154.307 107.095 154.365 107.099 154.436 107.118C154.471 107.147 154.524 107.141 154.552 107.105C154.582 107.069 154.576 107.019 154.54 106.99Z" fill="white"/>
<path fill-rule="evenodd" clip-rule="evenodd" d="M156.113 105.881C156.103 105.876 156.102 105.859 156.14 105.818C156.161 105.829 156.188 105.822 156.2 105.803C156.212 105.782 156.205 105.756 156.185 105.742C156.229 105.613 156.255 105.757 156.228 105.69L156.216 105.651C156.199 105.597 156.127 105.578 156.081 105.541C155.63 105.19 155.23 104.756 154.899 104.281C154.669 103.954 154.477 103.611 154.303 103.285C154.17 103.038 154.037 102.812 153.944 102.587C153.929 102.536 153.874 102.505 153.822 102.522C153.77 102.536 153.739 102.59 153.755 102.641C153.797 102.894 153.851 103.167 153.955 103.445C154.095 103.811 154.307 104.178 154.556 104.525C154.919 105.031 155.371 105.498 155.905 105.805C155.96 105.836 156.012 105.9 156.074 105.888L156.113 105.881Z" fill="white"/>
<path fill-rule="evenodd" clip-rule="evenodd" d="M157.689 104.581C157.743 104.449 157.762 104.605 157.736 104.467C157.716 104.363 157.597 104.309 157.521 104.234C157.069 103.795 156.607 103.373 156.201 102.921C155.918 102.609 155.642 102.308 155.425 101.969C155.385 101.892 155.29 101.868 155.215 101.908C155.141 101.949 155.114 102.043 155.155 102.119C155.416 102.642 155.757 103.148 156.184 103.603C156.508 103.944 156.868 104.268 157.26 104.545C157.348 104.61 157.426 104.719 157.534 104.714C157.675 104.71 157.518 104.726 157.635 104.648C157.654 104.661 157.681 104.661 157.697 104.64C157.711 104.623 157.708 104.594 157.689 104.581Z" fill="white"/>
<path fill-rule="evenodd" clip-rule="evenodd" d="M158.705 103.395C158.702 103.341 158.72 103.333 158.698 103.282C158.656 103.186 158.557 103.129 158.482 103.057C158.061 102.639 157.642 102.248 157.246 101.846C157.046 101.644 156.851 101.444 156.661 101.237C156.467 101.032 156.271 100.834 156.101 100.599C156.067 100.538 155.989 100.517 155.928 100.55C155.866 100.587 155.845 100.663 155.88 100.725C155.985 100.978 156.099 101.217 156.249 101.441C156.47 101.772 156.74 102.069 157.039 102.341C157.462 102.729 157.936 103.077 158.436 103.414C158.475 103.437 158.508 103.477 158.554 103.484C158.607 103.492 158.596 103.472 158.649 103.462C158.667 103.478 158.695 103.475 158.71 103.457C158.725 103.438 158.723 103.41 158.705 103.395Z" fill="white"/>
<path fill-rule="evenodd" clip-rule="evenodd" d="M159.385 101.607C159.305 101.503 159.279 101.417 159.186 101.327C159.09 101.233 158.971 101.168 158.861 101.092C158.601 100.913 158.344 100.729 158.092 100.544C157.71 100.261 157.331 99.9933 156.966 99.7275C156.92 99.685 156.85 99.6915 156.809 99.7353C156.769 99.7819 156.773 99.852 156.819 99.8923C157.06 100.157 157.287 100.44 157.554 100.703C157.817 100.96 158.106 101.199 158.418 101.403C158.581 101.507 158.742 101.63 158.931 101.677C159.081 101.714 159.195 101.692 159.351 101.687C159.372 101.698 159.399 101.686 159.408 101.666C159.417 101.643 159.407 101.616 159.385 101.607Z" fill="white"/>
<path fill-rule="evenodd" clip-rule="evenodd" d="M159.924 100.241C159.763 100.13 159.619 100.012 159.455 99.9081C159.215 99.7536 158.969 99.6167 158.72 99.4822C158.555 99.394 158.388 99.3092 158.218 99.2332C157.96 99.1154 157.698 99.0178 157.44 98.8997C157.376 98.8635 157.294 98.8854 157.257 98.9504C157.22 99.0145 157.242 99.0948 157.305 99.1338C157.541 99.3008 157.769 99.4711 158.018 99.6172C158.182 99.7127 158.353 99.8001 158.527 99.8762C158.787 99.9949 159.052 100.099 159.326 100.185C159.513 100.243 159.697 100.276 159.887 100.323C159.91 100.332 159.935 100.322 159.945 100.3C159.955 100.277 159.945 100.252 159.924 100.241Z" fill="white"/>
</g>
<path fill-rule="evenodd" clip-rule="evenodd" d="M76.8418 101.159C76.8418 101.159 77.3407 105.657 81.9414 112.995L100.925 112.743L100.768 104.705L76.8418 101.159Z" fill="#9DD797"/>
<mask id="mask3_0_16343" style="mask-type:luminance" maskUnits="userSpaceOnUse" x="76" y="101" width="25" height="12">
<path d="M76.8418 101.159C76.8418 101.159 77.3407 105.657 81.9414 112.995L100.925 112.743L100.768 104.705L76.8418 101.159Z" fill="white"/>
</mask>
<g mask="url(#mask3_0_16343)">
<path fill-rule="evenodd" clip-rule="evenodd" d="M71.0352 97.1631C71.0352 97.1631 71.7998 101.661 78.8508 108.999L107.945 108.747L107.705 100.709L71.0352 97.1631Z" fill="black"/>
</g>
<path fill-rule="evenodd" clip-rule="evenodd" d="M83.4185 46.4021L83.4185 56.4867C83.4185 56.4867 79.8706 64.7018 76.8418 68.7185L96.8759 68.8103L96.7811 67.4619C96.7811 67.4619 100.541 63.0087 99.3233 59.5005C98.1032 55.9924 94.992 49.399 94.992 49.399L93.6149 48.8335C93.6149 48.8335 96.4615 55.8205 96.5914 56.9115C96.7213 58.0025 86.8462 57.4619 85.983 56.6087C85.1199 55.7554 84.7056 46.3184 84.7056 46.3184L83.4185 46.4021Z" fill="#9DD797"/>
<mask id="mask4_0_16343" style="mask-type:luminance" maskUnits="userSpaceOnUse" x="76" y="46" width="24" height="23">
<path d="M83.4185 46.4021L83.4185 56.4867C83.4185 56.4867 79.8706 64.7018 76.8418 68.7185L96.8759 68.8103L96.7811 67.4619C96.7811 67.4619 100.541 63.0087 99.3233 59.5005C98.1032 55.9924 94.992 49.399 94.992 49.399L93.6149 48.8335C93.6149 48.8335 96.4615 55.8205 96.5914 56.9115C96.7213 58.0025 86.8462 57.4619 85.983 56.6087C85.1199 55.7554 84.7056 46.3184 84.7056 46.3184L83.4185 46.4021Z" fill="white"/>
</mask>
<g mask="url(#mask4_0_16343)">
<path fill-rule="evenodd" clip-rule="evenodd" d="M81.8096 62.5179C81.6075 62.761 81.6399 62.4769 81.5949 62.7851C81.5849 62.851 81.6447 62.9071 81.6722 62.965C82.181 63.9776 82.8847 64.7088 83.733 65.1319C84.6387 65.5843 85.7214 65.6511 86.9837 65.4481C87.091 65.44 87.1734 65.3465 87.1659 65.2388C87.1583 65.131 87.0635 65.0499 86.9563 65.058C85.8286 65.0402 84.9504 64.7516 84.1745 64.3063C83.4784 63.9073 82.8947 63.3444 82.3332 62.5651C82.2982 62.517 82.2783 62.4475 82.2209 62.4244C81.934 62.3077 82.1958 62.4333 81.8842 62.4751C81.8742 62.4538 81.8467 62.4466 81.8244 62.4582C81.8044 62.4707 81.7969 62.4974 81.8096 62.5179Z" fill="black"/>
<path fill-rule="evenodd" clip-rule="evenodd" d="M78.2671 69.085C78.2847 69.0761 78.3221 69.0734 78.3894 69.0823C78.3894 69.1063 78.4094 69.1259 78.4344 69.1259C78.4568 69.1259 78.4767 69.1063 78.4767 69.0823C78.5441 69.0725 78.5815 69.0752 78.6015 69.0841L78.6214 69.0618C78.6637 69.0182 78.6389 68.9425 78.6437 68.8819C78.6887 68.2852 78.6963 67.6849 78.7011 67.0846C78.7062 65.9972 78.6936 64.9088 78.6537 63.8231C78.6362 63.3538 78.5912 62.8906 78.564 62.424C78.5664 62.375 78.5266 62.3349 78.4791 62.334C78.4293 62.3331 78.3894 62.3714 78.3867 62.4204C78.3393 62.8871 78.2819 63.3493 78.252 63.8187C78.1823 64.9044 78.1596 65.9954 78.1648 67.0846C78.1672 67.6858 78.1747 68.2861 78.2221 68.8837C78.2273 68.9442 78.2022 69.0199 78.2472 69.0636L78.2671 69.085Z" fill="white"/>
<path fill-rule="evenodd" clip-rule="evenodd" d="M80.3324 69.3744C80.3774 69.3147 80.4122 69.3103 80.4372 69.239C80.5671 68.8685 80.462 68.4561 80.462 68.0643C80.462 67.0481 80.4321 66.0327 80.3847 65.0192C80.3472 64.2933 80.295 63.5675 80.2125 62.8443C80.1328 62.1202 80.0129 61.4042 79.8806 60.6836C79.8755 60.6275 79.8233 60.5874 79.7683 60.5946C79.7133 60.6017 79.6711 60.6525 79.6786 60.7077C79.746 61.6357 79.7511 62.5584 79.7858 63.4829C79.8356 64.8723 79.8655 66.2607 79.9604 67.6483C79.9954 68.1711 80.0377 68.6922 80.1201 69.2105C80.1253 69.2461 80.1225 69.2844 80.1425 69.3147C80.1823 69.3717 80.1851 69.3423 80.2449 69.3797C80.2449 69.4038 80.2648 69.4225 80.2899 69.4207C80.3149 69.4189 80.3324 69.3993 80.3324 69.3744Z" fill="white"/>
</g>
<path fill-rule="evenodd" clip-rule="evenodd" d="M97.6805 75.7781L75.623 71.5244C75.623 71.5244 68.086 77.676 65.5461 83.5497C63.0087 89.4234 62.6445 99.9693 79.0338 102.925L100.742 106.445L107.945 88.8685L97.5358 84.3085L97.6805 75.7781Z" fill="#9DD797"/>
<mask id="mask5_0_16343" style="mask-type:luminance" maskUnits="userSpaceOnUse" x="64" y="71" width="44" height="36">
<path d="M97.6805 75.7781L75.623 71.5244C75.623 71.5244 68.086 77.676 65.5461 83.5497C63.0087 89.4234 62.6445 99.9693 79.0338 102.925L100.742 106.445L107.945 88.8685L97.5358 84.3085L97.6805 75.7781Z" fill="white"/>
</mask>
<g mask="url(#mask5_0_16343)">
<path fill-rule="evenodd" clip-rule="evenodd" d="M99.5666 85.1031L84.707 78.8135L99.5666 82.123L99.5666 85.1031Z" fill="black"/>
<path fill-rule="evenodd" clip-rule="evenodd" d="M90.8632 81.001C90.9058 80.9814 90.903 81.0082 90.9329 80.9707C90.9453 80.9547 90.9405 80.9315 90.9429 80.912C90.9927 80.6172 91.0525 80.3233 91.1099 80.0293C91.3693 78.7174 91.7136 77.4154 91.9458 76.0972C92.1403 74.9875 92.2403 73.8689 92.2028 72.7378C92.2028 72.7013 92.1729 72.6719 92.1379 72.6719C92.1005 72.6719 92.0706 72.7013 92.0706 72.7378C92.0482 73.2962 91.9833 73.8457 91.9008 74.3935C91.7936 75.0953 91.6438 75.79 91.4916 76.4855C91.2645 77.5329 91.0151 78.5794 90.8206 79.633C90.7481 80.032 90.6883 80.4319 90.6385 80.8336C90.6333 80.8648 90.6161 80.8986 90.6261 80.9271C90.6436 80.9716 90.6484 80.9458 90.6859 80.9761C90.6783 81.0251 90.7134 81.0705 90.7608 81.0776C90.8106 81.0847 90.8556 81.0509 90.8632 81.001Z" fill="black"/>
<path fill-rule="evenodd" clip-rule="evenodd" d="M91.7221 80.895C91.762 80.846 91.7995 80.822 91.8245 80.765C91.8719 80.6626 91.8719 80.5441 91.8919 80.4328C92.164 79.006 92.4509 77.5855 92.6976 76.156C92.9721 74.5662 93.1817 72.9676 93.3813 71.3635C93.3865 71.327 93.3614 71.2932 93.3264 71.2878C93.2889 71.2825 93.2566 71.3074 93.2491 71.3439C93.0144 72.6799 92.7375 74.0025 92.4832 75.3322C92.3135 76.2183 92.154 77.1072 92.0042 77.9978C91.8571 78.8564 91.7249 79.7167 91.6026 80.5806C91.595 80.6376 91.5702 80.6955 91.5775 80.7534C91.5875 80.8095 91.6125 80.8291 91.6373 80.8808C91.6321 80.9048 91.6497 80.9271 91.6723 80.9307C91.6971 80.9342 91.7197 80.9182 91.7221 80.895Z" fill="black"/>
<path fill-rule="evenodd" clip-rule="evenodd" d="M104.983 98.8261C105.155 98.7495 104.906 98.949 105.003 98.7299C105.018 98.7335 105.03 98.7255 105.033 98.713C105.038 98.7005 105.028 98.6872 105.015 98.6836C105.023 98.6311 105.033 98.5999 105.045 98.5821L105.033 98.5652C105.01 98.5286 104.951 98.5411 104.908 98.5295C104.496 98.4111 104.082 98.2908 103.668 98.1706C102.016 97.6906 100.367 97.1936 98.7205 96.6957C96.2405 95.9458 93.7708 95.1843 91.3206 94.4068C88.2493 93.4316 85.2082 92.443 82.2292 91.449C80.3357 90.8256 78.2797 89.8058 76.9225 88.233C76.0642 87.239 75.4904 86.0216 75.4354 84.5378C75.3729 82.9756 75.7124 81.5533 76.2312 80.196C76.86 78.5465 77.778 77.0031 78.5638 75.4106C79.3723 73.7674 80.0382 72.0797 80.2605 70.2619C80.2729 70.1764 80.2155 70.0954 80.1309 70.082C80.0436 70.0686 79.9636 70.1265 79.9512 70.212C79.6094 71.9603 78.7937 73.5225 77.9405 75.0873C77.0798 76.67 76.1765 78.2526 75.5254 79.9225C74.9616 81.3707 74.6049 82.8946 74.6647 84.5654C74.7297 86.2389 75.3732 87.614 76.3414 88.7326C77.791 90.4052 79.9766 91.4971 81.9973 92.1544C86.4705 93.5848 91.0664 95.0258 95.7268 96.3609C98.4838 97.1508 101.263 97.9016 104.045 98.6097C104.324 98.6809 104.601 98.7504 104.881 98.8199C104.906 98.8261 104.931 98.8493 104.956 98.8386L104.983 98.8261Z" fill="white"/>
<path fill-rule="evenodd" clip-rule="evenodd" d="M105.222 100.575C105.18 100.543 105.155 100.507 105.097 100.477C105.013 100.435 104.898 100.424 104.776 100.39C104.379 100.28 103.825 100.108 103.134 99.9092C102.438 99.7097 101.602 99.4808 100.661 99.2207C97.7924 98.4263 93.9425 97.3504 90.0056 96.1596C86.5326 95.1078 82.985 93.9829 79.9834 92.8839C79.1925 92.5953 74.0781 91.2149 73.045 86.5257C72.5409 84.2323 73.0202 81.1677 75.3952 77.0673C75.8267 76.2995 76.2634 75.3216 76.685 74.2965C77.2189 72.9971 77.8078 71.654 78.2019 70.5318C78.2394 70.4285 78.2744 70.3305 78.2868 70.2272C78.2944 70.1702 78.2817 70.1319 78.2793 70.0758C78.3243 69.9814 78.2844 69.8692 78.192 69.8247C78.0971 69.7801 77.9848 69.8211 77.9401 69.9146C77.8927 69.9538 77.8528 69.9743 77.8102 70.0215C77.7405 70.0972 77.6931 70.1863 77.6405 70.2789C77.5931 70.3653 77.5532 70.4597 77.511 70.5532C76.6403 72.4378 75.6522 75.0429 74.6891 76.6576C72.1792 81.0074 71.7249 84.2698 72.2691 86.6976C73.4017 91.751 78.8757 93.2713 79.7289 93.5786C83.4912 94.9252 88.0918 96.3297 92.3582 97.5294C94.9554 98.2597 97.4279 98.925 99.5111 99.4452C100.676 99.7364 101.721 99.9867 102.597 100.178C103.65 100.409 104.458 100.561 104.937 100.64C104.982 100.648 105.027 100.663 105.067 100.66C105.13 100.656 105.165 100.635 105.212 100.622C105.224 100.624 105.237 100.616 105.239 100.603C105.242 100.591 105.235 100.578 105.222 100.575Z" fill="white"/>
</g>
<path fill-rule="evenodd" clip-rule="evenodd" d="M87.1043 27.4C86.9844 27.4615 83.1025 26.7169 80.6026 29.4066C78.8338 31.3081 78.0129 34.0975 76.6781 36.301C76.1493 37.1755 75.4855 37.9139 74.6746 38.5329C74.4052 38.7386 73.2051 39.4466 73.2051 39.4466C73.2051 39.4466 73.5617 40.6214 74.1008 41.2796C74.5997 41.8905 75.3233 42.9611 75.3233 42.9611C75.3233 42.9611 75.6401 42.6645 75.9469 42.5558C76.1167 42.4962 76.2837 42.4107 76.4283 42.3047C76.6778 42.1221 76.8674 41.8763 77.0746 41.6474C77.0794 41.642 77.2818 41.3927 77.3041 41.3998C77.4014 41.431 76.9447 42.3109 76.865 42.424C76.361 43.1517 75.725 43.6736 75.725 43.6736L78.125 45.7603C78.125 45.7603 79.0231 44.68 79.3076 44.2712C79.41 44.126 79.5121 43.9782 79.6045 43.8276C79.6443 43.7662 79.6842 43.5729 79.7141 43.6388C80.1607 44.6693 78.8634 46.2555 78.8634 46.2555C78.8634 46.2555 79.8165 46.7551 80.0409 46.838C80.3803 46.9627 80.7071 47.1096 81.0438 47.2405C81.4778 47.4106 82.3735 47.7348 82.3735 47.7348C82.3735 47.7348 82.8576 47.2405 82.9123 47.1265C83.2442 46.431 83.4661 45.6766 83.6434 44.9293C83.6908 44.7272 83.7307 44.5214 83.7657 44.3157C83.7857 44.191 83.7334 43.8463 83.8156 43.9408C83.8929 44.0263 83.8805 44.3807 83.8829 44.4867C83.8929 45.1191 83.7881 45.7879 83.6359 46.3998C83.5362 46.8041 83.1693 47.7642 83.1693 47.7642L86.6921 47.4534C86.6921 47.4534 86.8319 45.942 86.8168 45.4165C86.7818 44.2275 86.7993 43.0074 86.667 41.8255C86.5148 40.4406 86.0283 35.6766 86.0932 35.8075C86.5722 36.7676 86.7543 38.6014 86.7543 38.6014C86.7543 38.6014 88.6479 38.3227 90.6688 35.3979C90.9582 34.9793 91.1853 34.5295 91.3948 34.0673C91.4697 33.9052 91.5347 33.7395 91.5993 33.5738C91.6268 33.5035 91.6618 33.2897 91.6814 33.3628C91.8811 34.1563 90.4789 37.1105 90.5363 37.082C92.0158 36.3517 92.9589 35.3827 93.2706 34.6666C93.3802 34.4182 93.4726 34.167 93.5451 33.9061C93.5801 33.7849 93.6001 33.4233 93.6399 33.5418C93.7997 33.9978 93.3455 35.5849 93.3455 35.5849C93.3455 35.5849 94.1264 34.9926 94.1539 34.9686C94.4783 34.6818 94.6954 34.2703 94.8377 33.866C95.3218 32.4748 95.5262 31.0756 95.1194 29.6293C94.4867 27.3608 91.6277 25.0782 87.1043 27.4Z" fill="black"/>
<path fill-rule="evenodd" clip-rule="evenodd" d="M91.7249 35.456C91.6676 35.504 91.65 35.4862 91.6126 35.5504C91.5951 35.5797 91.5978 35.6136 91.5927 35.6465C91.5277 36.237 91.5875 36.8177 91.6449 37.3851C91.7497 38.428 91.9394 39.4433 92.1788 40.472C92.2788 40.9013 92.4059 41.3243 92.5132 41.7652C92.5231 41.8222 92.5757 41.8605 92.6331 41.8507C92.6904 41.8418 92.7279 41.7874 92.7179 41.7313C92.6581 41.148 92.6007 40.5797 92.5107 40.0204C92.2963 38.7094 92.0417 37.4456 91.9644 36.0883C91.9545 35.9218 91.9995 35.7427 91.9318 35.5869C91.8995 35.5121 91.8669 35.5192 91.8095 35.4586C91.8119 35.4346 91.792 35.415 91.7672 35.4141C91.7449 35.4132 91.7249 35.4319 91.7249 35.456Z" fill="black"/>
</svg>
