<svg width="16" height="16" viewBox="0 0 16 16" fill="none" xmlns="http://www.w3.org/2000/svg">
<path d="M2.66663 11.9874V6.47185C2.66663 4.0496 2.66663 2.83848 3.44767 2.08599C4.22873 1.3335 5.4858 1.3335 7.99996 1.3335C10.5141 1.3335 11.7712 1.3335 12.5522 2.08599C13.3333 2.83848 13.3333 4.0496 13.3333 6.47185V11.9874C13.3333 13.5246 13.3333 14.2932 12.8181 14.5684C11.8203 15.1011 9.94876 13.3236 9.05996 12.7884C8.54449 12.478 8.28676 12.3228 7.99996 12.3228C7.71316 12.3228 7.45543 12.478 6.93996 12.7884C6.05116 13.3236 4.17961 15.1011 3.18186 14.5684C2.66663 14.2932 2.66663 13.5246 2.66663 11.9874Z" stroke="white" stroke-width="2" stroke-linecap="round" stroke-linejoin="round"/>
</svg>
