<svg width="33" height="32" viewBox="0 0 33 32" fill="none" xmlns="http://www.w3.org/2000/svg">
<path d="M31.5 17.4544C31.1022 17.4544 30.7206 17.6077 30.4393 17.8804C30.158 18.1532 30 18.5232 30 18.909V25.037C29.9988 26.1118 29.558 27.1423 28.7742 27.9023C27.9905 28.6623 26.9279 29.0897 25.8195 29.0909H7.1805C6.07213 29.0897 5.00949 28.6623 4.22576 27.9023C3.44202 27.1423 3.00119 26.1118 3 25.037V18.909C3 18.5232 2.84196 18.1532 2.56066 17.8804C2.27936 17.6077 1.89782 17.4544 1.5 17.4544C1.10218 17.4544 0.720644 17.6077 0.43934 17.8804C0.158035 18.1532 0 18.5232 0 18.909V25.037C0.00198538 26.8831 0.759138 28.6531 2.10531 29.9585C3.45149 31.2639 5.27672 31.9981 7.1805 32H25.8195C27.7233 31.9981 29.5485 31.2639 30.8947 29.9585C32.2409 28.6531 32.998 26.8831 33 25.037V18.909C33 18.5232 32.842 18.1532 32.5607 17.8804C32.2794 17.6077 31.8978 17.4544 31.5 17.4544Z" fill="white"/>
<path d="M8.5605 11.21L15 4.96556V23.2726C15 23.6584 15.158 24.0284 15.4393 24.3012C15.7206 24.574 16.1022 24.7272 16.5 24.7272C16.8978 24.7272 17.2794 24.574 17.5607 24.3012C17.842 24.0284 18 23.6584 18 23.2726V4.96556L24.4395 11.21C24.7224 11.4749 25.1013 11.6216 25.4946 11.6182C25.8879 11.6149 26.2641 11.4619 26.5422 11.1923C26.8203 10.9226 26.9781 10.5578 26.9815 10.1764C26.9849 9.79499 26.8337 9.42757 26.5605 9.15323L17.5605 0.425875C17.2792 0.153188 16.8977 0 16.5 0C16.1023 0 15.7208 0.153188 15.4395 0.425875L6.4395 9.15323C6.16626 9.42757 6.01507 9.79499 6.01849 10.1764C6.02191 10.5578 6.17966 10.9226 6.45777 11.1923C6.73589 11.4619 7.1121 11.6149 7.5054 11.6182C7.89869 11.6216 8.2776 11.4749 8.5605 11.21Z" fill="white"/>
</svg>
