<svg width="16" height="16" viewBox="0 0 16 16" fill="none" xmlns="http://www.w3.org/2000/svg">
<path d="M2 10.6666L4.97978 7.68679C5.20615 7.46045 5.51319 7.33325 5.83333 7.33325C6.15348 7.33325 6.46051 7.46045 6.68687 7.68679L9.33333 10.3333M9.33333 10.3333L10.3333 11.3333M9.33333 10.3333L10.6465 9.02012C10.8728 8.79379 11.1799 8.66659 11.5 8.66659C11.8201 8.66659 12.1272 8.79379 12.3535 9.02012L14 10.6666" stroke="#FF8D28" stroke-width="1.5" stroke-linecap="round" stroke-linejoin="round"/>
<path d="M7.99984 1.66675C5.18002 1.66675 3.7701 1.66675 2.83501 2.46539C2.70222 2.5788 2.57856 2.70247 2.46515 2.83525C1.6665 3.77035 1.6665 5.18026 1.6665 8.00008C1.6665 10.8199 1.6665 12.2298 2.46515 13.1649C2.57856 13.2977 2.70222 13.4213 2.83501 13.5347C3.7701 14.3334 5.18002 14.3334 7.99984 14.3334C10.8196 14.3334 12.2296 14.3334 13.1646 13.5347C13.2974 13.4213 13.4211 13.2977 13.5345 13.1649C14.3332 12.2298 14.3332 10.8199 14.3332 8.00008" stroke="#FF8D28" stroke-width="1.5" stroke-linecap="round" stroke-linejoin="round"/>
<path d="M10.3335 3.66675C10.7267 3.26219 11.7733 1.66675 12.3335 1.66675C12.8937 1.66675 13.9403 3.26219 14.3335 3.66675M12.3335 2.00008V6.33341" stroke="#FF8D28" stroke-width="1.5" stroke-linecap="round" stroke-linejoin="round"/>
</svg>
