<svg width="14" height="17" viewBox="0 0 14 17" fill="none" xmlns="http://www.w3.org/2000/svg">
<path d="M12.1647 17H1.83213C0.821299 16.9967 0.00315884 16.1367 0 15.0742V14.2242C0 12.1457 0.830776 10.1635 2.29332 8.76562C2.90298 8.18457 3.80956 8.10488 4.50135 8.57305C5.22473 9.06113 6.08709 9.32012 7 9.32012C7.9129 9.32012 8.77527 9.06113 9.49864 8.57305C10.1904 8.10488 11.097 8.18457 11.7067 8.76562C13.1692 10.1635 14.0031 12.1457 14 14.2242V15.0742C13.9968 16.14 13.1755 17 12.1647 17ZM3.51579 8.93164C3.21886 8.93164 2.93456 9.04785 2.7166 9.25703C1.38673 10.5287 0.62861 12.335 0.62861 14.2242V15.0742C0.631768 15.7715 1.16561 16.3326 1.82897 16.3359H12.1615C12.8249 16.3359 13.3619 15.7715 13.3619 15.0742V14.2242C13.3619 12.335 12.6038 10.532 11.2739 9.25703C10.8759 8.87852 10.2852 8.82539 9.83348 9.13086C9.00902 9.68867 8.02662 9.98418 6.99368 9.98418C5.96074 9.98418 4.97834 9.68867 4.15388 9.13086C3.96751 9.00137 3.74323 8.93164 3.51579 8.93164Z" fill="#EB5725"/>
<path d="M7 8.56641C4.7509 8.56309 2.92825 6.64727 2.92509 4.2832C2.92509 1.92246 4.7509 0 7 0C9.24909 0.00332031 11.0717 1.91914 11.0749 4.2832C11.0717 6.64395 9.24593 8.56641 7 8.56641ZM7 0.667383C5.09837 0.667383 3.55686 2.2877 3.55686 4.28652C3.55686 6.28535 5.09837 7.90566 7 7.90566C8.90162 7.90566 10.4431 6.28535 10.4431 4.28652C10.44 2.2877 8.90162 0.667383 7 0.667383Z" fill="#EB5725"/>
</svg>
