<svg width="14" height="14" viewBox="0 0 14 14" fill="none" xmlns="http://www.w3.org/2000/svg">
<path d="M0.381175 11.1896H4.5741V12.0807C4.5741 13.1089 3.65928 14 2.51576 14C1.37223 14 0.381175 13.1774 0.381175 12.0807V11.1896ZM3.43058 3.03239C4.95528 3.03239 5.71763 5.02027 5.71763 6.39122C5.71763 7.0767 5.33646 7.76217 4.95528 8.79039L4.5741 9.8186H0.381175C0.381175 9.13313 0 8.10491 0 6.39122C0 4.67754 1.5247 3.03239 3.43058 3.03239ZM12.655 8.5162L12.5026 9.33877C12.2738 10.367 11.2066 11.0525 10.063 10.8468C8.9195 10.6412 8.15715 9.68151 8.38586 8.65329L8.53833 7.83072L12.655 8.5162ZM11.2066 0.0163036C13.1124 0.290494 14.256 2.14128 13.951 3.85497C13.6461 5.56865 13.0362 6.52832 12.8837 7.14525L8.76703 6.45977L8.61456 5.36301C8.46209 4.3348 8.15715 3.64932 8.30962 2.96385C8.61456 1.5929 9.68185 -0.189339 11.2066 0.0163036Z" fill="url(#paint0_linear_0_6118)"/>
<defs>
<linearGradient id="paint0_linear_0_6118" x1="0" y1="6.99993" x2="13.9998" y2="6.99993" gradientUnits="userSpaceOnUse">
<stop stop-color="#4DBFFF"/>
<stop offset="1" stop-color="#008DDB"/>
</linearGradient>
</defs>
</svg>
