<svg width="14" height="14" viewBox="0 0 14 14" fill="none" xmlns="http://www.w3.org/2000/svg">
<path d="M7 12.8332C9.41622 12.8332 11.375 10.8744 11.375 8.45817C11.375 7.87484 11.375 6.70817 10.2083 5.24984C10.2083 5.24984 10.1502 6.91444 8.99862 6.67364C7.13597 6.2842 9.54047 2.62656 6.125 1.1665C6.125 4.08317 2.625 4.95817 2.625 8.45817C2.625 10.8744 4.58375 12.8332 7 12.8332Z" stroke="white" stroke-linejoin="round"/>
<path d="M7 11.0838C8.12759 11.0838 9.04167 9.90857 9.04167 8.45881C7.175 9.15881 6.51391 7.54695 6.41667 6.4165C5.57332 6.7392 4.95834 8.06477 4.95834 8.74984C4.95834 10.1996 5.87242 11.0838 7 11.0838Z" stroke="white" stroke-linejoin="round"/>
</svg>
